<svg width="50" height="50" viewBox="0 0 50 50" fill="none" xmlns="http://www.w3.org/2000/svg">
<rect width="50" height="50" rx="5.31915" fill="#204A42"/>
<mask id="path-2-outside-1" maskUnits="userSpaceOnUse" x="6.18958" y="16.1025" width="37" height="18" fill="black">
<rect fill="white" x="6.18958" y="16.1025" width="37" height="18"/>
<path d="M9.55204 19.6714C9.55204 19.1668 9.39148 18.7616 9.07037 18.4558C8.76455 18.1347 8.22172 17.9359 7.44188 17.8594C7.36542 17.8594 7.30426 17.8212 7.25838 17.7448C7.2278 17.653 7.21251 17.5613 7.21251 17.4695C7.21251 17.3778 7.2278 17.2937 7.25838 17.2172C7.30426 17.1408 7.37307 17.1025 7.46481 17.1025C7.64831 17.1025 7.93884 17.1025 8.3364 17.1025C8.73397 17.1025 9.13918 17.1178 9.55204 17.1484C9.9649 17.1637 10.3395 17.1943 10.6759 17.2402C11.0123 17.286 11.2111 17.3472 11.2723 17.4237L20.5157 28.4103C20.6992 28.609 20.7909 28.5708 20.7909 28.2956V22.6761C20.7909 22.4315 20.7909 22.1333 20.7909 21.7816C20.7909 21.4146 20.7833 21.0553 20.768 20.7036C20.7527 20.3366 20.7298 19.9925 20.6992 19.6714C20.6839 19.3503 20.6457 19.098 20.5845 18.9145C20.5081 18.6852 20.4316 18.5093 20.3552 18.387C20.2787 18.2494 20.1717 18.15 20.034 18.0888C19.9117 18.0124 19.7512 17.9665 19.5524 17.9512C19.3689 17.9206 19.1395 17.89 18.8643 17.8594C18.7878 17.8594 18.7267 17.8212 18.6808 17.7448C18.6502 17.653 18.6349 17.5613 18.6349 17.4695C18.6349 17.3778 18.6502 17.2937 18.6808 17.2172C18.7114 17.1408 18.7725 17.1025 18.8643 17.1025C19.2313 17.1025 19.6212 17.1255 20.034 17.1713C20.4622 17.2172 20.8903 17.2402 21.3185 17.2402C21.7161 17.2402 22.106 17.2172 22.4883 17.1713C22.8858 17.1255 23.3293 17.1025 23.8186 17.1025C23.9103 17.1025 23.9791 17.1408 24.025 17.2172C24.0709 17.2937 24.0938 17.3778 24.0938 17.4695C24.0938 17.5613 24.0709 17.653 24.025 17.7448C23.9791 17.8212 23.9103 17.8594 23.8186 17.8594C23.5433 17.89 23.3216 17.913 23.1534 17.9283C23.0005 17.9435 22.8629 17.9818 22.7406 18.0429C22.6335 18.1041 22.5341 18.2035 22.4424 18.3411C22.3506 18.4634 22.2512 18.6546 22.1442 18.9145C22.0677 19.098 22.0066 19.3503 21.9607 19.6714C21.9148 19.9925 21.8766 20.3366 21.846 20.7036C21.8307 21.0706 21.8231 21.4375 21.8231 21.8045C21.8231 22.1715 21.8231 22.4926 21.8231 22.7679V32.6994C21.8231 32.7453 21.7772 32.7835 21.6855 32.8141C21.609 32.8447 21.5096 32.8599 21.3873 32.8599C21.2803 32.8752 21.1732 32.8752 21.0662 32.8599C20.9591 32.8447 20.8903 32.8141 20.8598 32.7682L10.997 21.0706C10.8747 20.9329 10.783 20.8718 10.7218 20.8871C10.6606 20.8871 10.6301 20.9865 10.6301 21.1852V29.5341C10.6301 30.0846 10.6683 30.5128 10.7447 30.8186C10.8365 31.1244 10.9665 31.3538 11.1347 31.5067C11.3182 31.6443 11.5399 31.7437 11.7998 31.8049C12.0598 31.8507 12.3656 31.8966 12.7173 31.9425C12.809 31.9578 12.8778 32.0036 12.9237 32.0801C12.9696 32.1566 12.9849 32.2407 12.9696 32.3324C12.9696 32.4241 12.9466 32.5082 12.9008 32.5847C12.8549 32.6612 12.7861 32.6994 12.6943 32.6994C12.3579 32.6994 11.9833 32.6688 11.5705 32.6076C11.1729 32.5618 10.6989 32.5388 10.1484 32.5388C9.56733 32.5388 9.04744 32.5618 8.5887 32.6076C8.14526 32.6688 7.77063 32.6994 7.46481 32.6994C7.38836 32.6994 7.32719 32.6612 7.28132 32.5847C7.23545 32.5082 7.20487 32.4241 7.18958 32.3324C7.18958 32.2407 7.21251 32.1566 7.25838 32.0801C7.30426 32.0036 7.37307 31.9578 7.46481 31.9425C7.86238 31.8966 8.19114 31.8507 8.45109 31.8049C8.72632 31.7437 8.9404 31.6443 9.09331 31.5067C9.26151 31.3538 9.37619 31.1244 9.43736 30.8186C9.51381 30.5128 9.55204 30.0846 9.55204 29.5341V19.6714Z"/>
<path d="M27.6393 26.7359C27.5628 26.7359 27.517 26.7665 27.5017 26.8276C27.5017 26.8735 27.5017 26.9347 27.5017 27.0111C27.5017 27.8063 27.5858 28.4791 27.754 29.0295C27.9375 29.58 28.1821 30.0311 28.4879 30.3828C28.8091 30.7192 29.1837 30.9639 29.6118 31.1168C30.0553 31.2697 30.5293 31.3461 31.0339 31.3461C31.5538 31.3461 32.0584 31.3079 32.5477 31.2314C33.037 31.1397 33.4575 30.9486 33.8092 30.658C33.8857 30.5969 33.9621 30.5739 34.0386 30.5892C34.1303 30.6045 34.1991 30.6427 34.245 30.7039C34.3062 30.7651 34.3444 30.8339 34.3597 30.9103C34.375 30.9868 34.3597 31.0556 34.3138 31.1168C33.8245 31.759 33.274 32.2024 32.6624 32.4471C32.0508 32.6917 31.2939 32.8141 30.3917 32.8141C29.4742 32.8141 28.6791 32.6765 28.0063 32.4012C27.3488 32.126 26.7983 31.7437 26.3548 31.2544C25.9267 30.7498 25.6056 30.1687 25.3915 29.5112C25.1927 28.8384 25.0933 28.1121 25.0933 27.3322C25.0933 26.583 25.2157 25.8719 25.4603 25.1991C25.7203 24.5263 26.0796 23.9453 26.5383 23.456C26.9971 22.9666 27.5399 22.5767 28.1668 22.2862C28.7938 21.9957 29.4895 21.8504 30.2541 21.8504C30.8963 21.8504 31.4773 21.9651 31.9972 22.1945C32.5324 22.4085 32.9835 22.7143 33.3505 23.1119C33.7175 23.4942 34.0004 23.9606 34.1991 24.511C34.4132 25.0462 34.5203 25.6273 34.5203 26.2542C34.5203 26.5753 34.4056 26.7359 34.1762 26.7359H27.6393ZM31.8367 25.9331C32.0508 25.9331 32.1731 25.8567 32.2037 25.7037C32.2342 25.5508 32.2495 25.3673 32.2495 25.1533C32.2495 24.8322 32.196 24.5263 32.089 24.2358C31.9972 23.93 31.8596 23.6624 31.6761 23.433C31.4926 23.2037 31.2709 23.0202 31.011 22.8825C30.751 22.7449 30.4528 22.6761 30.1164 22.6761C29.7036 22.6761 29.3442 22.7526 29.0384 22.9055C28.7479 23.0431 28.4956 23.2342 28.2815 23.4789C28.0827 23.7083 27.9298 23.9835 27.8228 24.3046C27.7158 24.6257 27.6393 24.9621 27.5934 25.3138C27.5628 25.4973 27.5475 25.6502 27.5475 25.7726C27.5628 25.8796 27.6011 25.9331 27.6622 25.9331H31.8367Z"/>
<path d="M39.2522 29.0525C39.2522 29.9088 39.3439 30.5434 39.5274 30.9562C39.7262 31.3691 40.0779 31.5755 40.5825 31.5755C40.9342 31.5755 41.2629 31.522 41.5688 31.4149C41.8899 31.3079 42.1345 31.1932 42.3027 31.0709C42.3486 31.0403 42.4021 31.0403 42.4633 31.0709C42.5245 31.0862 42.578 31.1244 42.6238 31.1856C42.6697 31.2314 42.7003 31.285 42.7156 31.3461C42.7462 31.4073 42.7462 31.4608 42.7156 31.5067C42.4251 31.9807 42.0428 32.3171 41.5688 32.5159C41.11 32.7147 40.5672 32.8141 39.9403 32.8141C38.9005 32.8141 38.1665 32.5847 37.7384 32.126C37.3102 31.652 37.0961 30.918 37.0961 29.9241V24.0294C37.0961 23.8459 37.0885 23.7006 37.0732 23.5936C37.0579 23.4865 37.012 23.4101 36.9356 23.3642C36.8591 23.3183 36.7292 23.2954 36.5457 23.2954C36.3775 23.2801 36.1328 23.2725 35.8117 23.2725C35.7658 23.2725 35.7276 23.2266 35.697 23.1348C35.6664 23.0431 35.6435 22.9437 35.6282 22.8367C35.6282 22.7296 35.6435 22.6302 35.6741 22.5385C35.7047 22.4468 35.7505 22.4009 35.8117 22.4009C36.194 22.3703 36.5227 22.3168 36.798 22.2403C37.0732 22.1486 37.3026 22.011 37.4861 21.8275C37.6848 21.644 37.8378 21.3993 37.9448 21.0935C38.0671 20.7724 38.1665 20.3595 38.243 19.8549C38.2583 19.7632 38.3194 19.6944 38.4265 19.6485C38.5335 19.6026 38.6482 19.5797 38.7705 19.5797C38.8928 19.5797 38.9999 19.6026 39.0916 19.6485C39.1987 19.6791 39.2522 19.7249 39.2522 19.7861V21.7587C39.2522 22.0033 39.2598 22.1486 39.2751 22.1945C39.3057 22.225 39.4051 22.2403 39.5733 22.2403H41.9587C42.0657 22.2403 42.1345 22.3015 42.1651 22.4238C42.1957 22.5461 42.211 22.6532 42.211 22.7449C42.211 22.8367 42.1881 22.9514 42.1422 23.089C42.1116 23.2113 42.0351 23.2725 41.9128 23.2725H39.4586C39.3516 23.2725 39.2904 23.303 39.2751 23.3642C39.2598 23.4101 39.2522 23.6012 39.2522 23.9376V29.0525Z"/>
</mask>
<path d="M9.55204 19.6714C9.55204 19.1668 9.39148 18.7616 9.07037 18.4558C8.76455 18.1347 8.22172 17.9359 7.44188 17.8594C7.36542 17.8594 7.30426 17.8212 7.25838 17.7448C7.2278 17.653 7.21251 17.5613 7.21251 17.4695C7.21251 17.3778 7.2278 17.2937 7.25838 17.2172C7.30426 17.1408 7.37307 17.1025 7.46481 17.1025C7.64831 17.1025 7.93884 17.1025 8.3364 17.1025C8.73397 17.1025 9.13918 17.1178 9.55204 17.1484C9.9649 17.1637 10.3395 17.1943 10.6759 17.2402C11.0123 17.286 11.2111 17.3472 11.2723 17.4237L20.5157 28.4103C20.6992 28.609 20.7909 28.5708 20.7909 28.2956V22.6761C20.7909 22.4315 20.7909 22.1333 20.7909 21.7816C20.7909 21.4146 20.7833 21.0553 20.768 20.7036C20.7527 20.3366 20.7298 19.9925 20.6992 19.6714C20.6839 19.3503 20.6457 19.098 20.5845 18.9145C20.5081 18.6852 20.4316 18.5093 20.3552 18.387C20.2787 18.2494 20.1717 18.15 20.034 18.0888C19.9117 18.0124 19.7512 17.9665 19.5524 17.9512C19.3689 17.9206 19.1395 17.89 18.8643 17.8594C18.7878 17.8594 18.7267 17.8212 18.6808 17.7448C18.6502 17.653 18.6349 17.5613 18.6349 17.4695C18.6349 17.3778 18.6502 17.2937 18.6808 17.2172C18.7114 17.1408 18.7725 17.1025 18.8643 17.1025C19.2313 17.1025 19.6212 17.1255 20.034 17.1713C20.4622 17.2172 20.8903 17.2402 21.3185 17.2402C21.7161 17.2402 22.106 17.2172 22.4883 17.1713C22.8858 17.1255 23.3293 17.1025 23.8186 17.1025C23.9103 17.1025 23.9791 17.1408 24.025 17.2172C24.0709 17.2937 24.0938 17.3778 24.0938 17.4695C24.0938 17.5613 24.0709 17.653 24.025 17.7448C23.9791 17.8212 23.9103 17.8594 23.8186 17.8594C23.5433 17.89 23.3216 17.913 23.1534 17.9283C23.0005 17.9435 22.8629 17.9818 22.7406 18.0429C22.6335 18.1041 22.5341 18.2035 22.4424 18.3411C22.3506 18.4634 22.2512 18.6546 22.1442 18.9145C22.0677 19.098 22.0066 19.3503 21.9607 19.6714C21.9148 19.9925 21.8766 20.3366 21.846 20.7036C21.8307 21.0706 21.8231 21.4375 21.8231 21.8045C21.8231 22.1715 21.8231 22.4926 21.8231 22.7679V32.6994C21.8231 32.7453 21.7772 32.7835 21.6855 32.8141C21.609 32.8447 21.5096 32.8599 21.3873 32.8599C21.2803 32.8752 21.1732 32.8752 21.0662 32.8599C20.9591 32.8447 20.8903 32.8141 20.8598 32.7682L10.997 21.0706C10.8747 20.9329 10.783 20.8718 10.7218 20.8871C10.6606 20.8871 10.6301 20.9865 10.6301 21.1852V29.5341C10.6301 30.0846 10.6683 30.5128 10.7447 30.8186C10.8365 31.1244 10.9665 31.3538 11.1347 31.5067C11.3182 31.6443 11.5399 31.7437 11.7998 31.8049C12.0598 31.8507 12.3656 31.8966 12.7173 31.9425C12.809 31.9578 12.8778 32.0036 12.9237 32.0801C12.9696 32.1566 12.9849 32.2407 12.9696 32.3324C12.9696 32.4241 12.9466 32.5082 12.9008 32.5847C12.8549 32.6612 12.7861 32.6994 12.6943 32.6994C12.3579 32.6994 11.9833 32.6688 11.5705 32.6076C11.1729 32.5618 10.6989 32.5388 10.1484 32.5388C9.56733 32.5388 9.04744 32.5618 8.5887 32.6076C8.14526 32.6688 7.77063 32.6994 7.46481 32.6994C7.38836 32.6994 7.32719 32.6612 7.28132 32.5847C7.23545 32.5082 7.20487 32.4241 7.18958 32.3324C7.18958 32.2407 7.21251 32.1566 7.25838 32.0801C7.30426 32.0036 7.37307 31.9578 7.46481 31.9425C7.86238 31.8966 8.19114 31.8507 8.45109 31.8049C8.72632 31.7437 8.9404 31.6443 9.09331 31.5067C9.26151 31.3538 9.37619 31.1244 9.43736 30.8186C9.51381 30.5128 9.55204 30.0846 9.55204 29.5341V19.6714Z" fill="white"/>
<path d="M27.6393 26.7359C27.5628 26.7359 27.517 26.7665 27.5017 26.8276C27.5017 26.8735 27.5017 26.9347 27.5017 27.0111C27.5017 27.8063 27.5858 28.4791 27.754 29.0295C27.9375 29.58 28.1821 30.0311 28.4879 30.3828C28.8091 30.7192 29.1837 30.9639 29.6118 31.1168C30.0553 31.2697 30.5293 31.3461 31.0339 31.3461C31.5538 31.3461 32.0584 31.3079 32.5477 31.2314C33.037 31.1397 33.4575 30.9486 33.8092 30.658C33.8857 30.5969 33.9621 30.5739 34.0386 30.5892C34.1303 30.6045 34.1991 30.6427 34.245 30.7039C34.3062 30.7651 34.3444 30.8339 34.3597 30.9103C34.375 30.9868 34.3597 31.0556 34.3138 31.1168C33.8245 31.759 33.274 32.2024 32.6624 32.4471C32.0508 32.6917 31.2939 32.8141 30.3917 32.8141C29.4742 32.8141 28.6791 32.6765 28.0063 32.4012C27.3488 32.126 26.7983 31.7437 26.3548 31.2544C25.9267 30.7498 25.6056 30.1687 25.3915 29.5112C25.1927 28.8384 25.0933 28.1121 25.0933 27.3322C25.0933 26.583 25.2157 25.8719 25.4603 25.1991C25.7203 24.5263 26.0796 23.9453 26.5383 23.456C26.9971 22.9666 27.5399 22.5767 28.1668 22.2862C28.7938 21.9957 29.4895 21.8504 30.2541 21.8504C30.8963 21.8504 31.4773 21.9651 31.9972 22.1945C32.5324 22.4085 32.9835 22.7143 33.3505 23.1119C33.7175 23.4942 34.0004 23.9606 34.1991 24.511C34.4132 25.0462 34.5203 25.6273 34.5203 26.2542C34.5203 26.5753 34.4056 26.7359 34.1762 26.7359H27.6393ZM31.8367 25.9331C32.0508 25.9331 32.1731 25.8567 32.2037 25.7037C32.2342 25.5508 32.2495 25.3673 32.2495 25.1533C32.2495 24.8322 32.196 24.5263 32.089 24.2358C31.9972 23.93 31.8596 23.6624 31.6761 23.433C31.4926 23.2037 31.2709 23.0202 31.011 22.8825C30.751 22.7449 30.4528 22.6761 30.1164 22.6761C29.7036 22.6761 29.3442 22.7526 29.0384 22.9055C28.7479 23.0431 28.4956 23.2342 28.2815 23.4789C28.0827 23.7083 27.9298 23.9835 27.8228 24.3046C27.7158 24.6257 27.6393 24.9621 27.5934 25.3138C27.5628 25.4973 27.5475 25.6502 27.5475 25.7726C27.5628 25.8796 27.6011 25.9331 27.6622 25.9331H31.8367Z" fill="white"/>
<path d="M39.2522 29.0525C39.2522 29.9088 39.3439 30.5434 39.5274 30.9562C39.7262 31.3691 40.0779 31.5755 40.5825 31.5755C40.9342 31.5755 41.2629 31.522 41.5688 31.4149C41.8899 31.3079 42.1345 31.1932 42.3027 31.0709C42.3486 31.0403 42.4021 31.0403 42.4633 31.0709C42.5245 31.0862 42.578 31.1244 42.6238 31.1856C42.6697 31.2314 42.7003 31.285 42.7156 31.3461C42.7462 31.4073 42.7462 31.4608 42.7156 31.5067C42.4251 31.9807 42.0428 32.3171 41.5688 32.5159C41.11 32.7147 40.5672 32.8141 39.9403 32.8141C38.9005 32.8141 38.1665 32.5847 37.7384 32.126C37.3102 31.652 37.0961 30.918 37.0961 29.9241V24.0294C37.0961 23.8459 37.0885 23.7006 37.0732 23.5936C37.0579 23.4865 37.012 23.4101 36.9356 23.3642C36.8591 23.3183 36.7292 23.2954 36.5457 23.2954C36.3775 23.2801 36.1328 23.2725 35.8117 23.2725C35.7658 23.2725 35.7276 23.2266 35.697 23.1348C35.6664 23.0431 35.6435 22.9437 35.6282 22.8367C35.6282 22.7296 35.6435 22.6302 35.6741 22.5385C35.7047 22.4468 35.7505 22.4009 35.8117 22.4009C36.194 22.3703 36.5227 22.3168 36.798 22.2403C37.0732 22.1486 37.3026 22.011 37.4861 21.8275C37.6848 21.644 37.8378 21.3993 37.9448 21.0935C38.0671 20.7724 38.1665 20.3595 38.243 19.8549C38.2583 19.7632 38.3194 19.6944 38.4265 19.6485C38.5335 19.6026 38.6482 19.5797 38.7705 19.5797C38.8928 19.5797 38.9999 19.6026 39.0916 19.6485C39.1987 19.6791 39.2522 19.7249 39.2522 19.7861V21.7587C39.2522 22.0033 39.2598 22.1486 39.2751 22.1945C39.3057 22.225 39.4051 22.2403 39.5733 22.2403H41.9587C42.0657 22.2403 42.1345 22.3015 42.1651 22.4238C42.1957 22.5461 42.211 22.6532 42.211 22.7449C42.211 22.8367 42.1881 22.9514 42.1422 23.089C42.1116 23.2113 42.0351 23.2725 41.9128 23.2725H39.4586C39.3516 23.2725 39.2904 23.303 39.2751 23.3642C39.2598 23.4101 39.2522 23.6012 39.2522 23.9376V29.0525Z" fill="white"/>
<path d="M9.55204 19.6714C9.55204 19.1668 9.39148 18.7616 9.07037 18.4558C8.76455 18.1347 8.22172 17.9359 7.44188 17.8594C7.36542 17.8594 7.30426 17.8212 7.25838 17.7448C7.2278 17.653 7.21251 17.5613 7.21251 17.4695C7.21251 17.3778 7.2278 17.2937 7.25838 17.2172C7.30426 17.1408 7.37307 17.1025 7.46481 17.1025C7.64831 17.1025 7.93884 17.1025 8.3364 17.1025C8.73397 17.1025 9.13918 17.1178 9.55204 17.1484C9.9649 17.1637 10.3395 17.1943 10.6759 17.2402C11.0123 17.286 11.2111 17.3472 11.2723 17.4237L20.5157 28.4103C20.6992 28.609 20.7909 28.5708 20.7909 28.2956V22.6761C20.7909 22.4315 20.7909 22.1333 20.7909 21.7816C20.7909 21.4146 20.7833 21.0553 20.768 20.7036C20.7527 20.3366 20.7298 19.9925 20.6992 19.6714C20.6839 19.3503 20.6457 19.098 20.5845 18.9145C20.5081 18.6852 20.4316 18.5093 20.3552 18.387C20.2787 18.2494 20.1717 18.15 20.034 18.0888C19.9117 18.0124 19.7512 17.9665 19.5524 17.9512C19.3689 17.9206 19.1395 17.89 18.8643 17.8594C18.7878 17.8594 18.7267 17.8212 18.6808 17.7448C18.6502 17.653 18.6349 17.5613 18.6349 17.4695C18.6349 17.3778 18.6502 17.2937 18.6808 17.2172C18.7114 17.1408 18.7725 17.1025 18.8643 17.1025C19.2313 17.1025 19.6212 17.1255 20.034 17.1713C20.4622 17.2172 20.8903 17.2402 21.3185 17.2402C21.7161 17.2402 22.106 17.2172 22.4883 17.1713C22.8858 17.1255 23.3293 17.1025 23.8186 17.1025C23.9103 17.1025 23.9791 17.1408 24.025 17.2172C24.0709 17.2937 24.0938 17.3778 24.0938 17.4695C24.0938 17.5613 24.0709 17.653 24.025 17.7448C23.9791 17.8212 23.9103 17.8594 23.8186 17.8594C23.5433 17.89 23.3216 17.913 23.1534 17.9283C23.0005 17.9435 22.8629 17.9818 22.7406 18.0429C22.6335 18.1041 22.5341 18.2035 22.4424 18.3411C22.3506 18.4634 22.2512 18.6546 22.1442 18.9145C22.0677 19.098 22.0066 19.3503 21.9607 19.6714C21.9148 19.9925 21.8766 20.3366 21.846 20.7036C21.8307 21.0706 21.8231 21.4375 21.8231 21.8045C21.8231 22.1715 21.8231 22.4926 21.8231 22.7679V32.6994C21.8231 32.7453 21.7772 32.7835 21.6855 32.8141C21.609 32.8447 21.5096 32.8599 21.3873 32.8599C21.2803 32.8752 21.1732 32.8752 21.0662 32.8599C20.9591 32.8447 20.8903 32.8141 20.8598 32.7682L10.997 21.0706C10.8747 20.9329 10.783 20.8718 10.7218 20.8871C10.6606 20.8871 10.6301 20.9865 10.6301 21.1852V29.5341C10.6301 30.0846 10.6683 30.5128 10.7447 30.8186C10.8365 31.1244 10.9665 31.3538 11.1347 31.5067C11.3182 31.6443 11.5399 31.7437 11.7998 31.8049C12.0598 31.8507 12.3656 31.8966 12.7173 31.9425C12.809 31.9578 12.8778 32.0036 12.9237 32.0801C12.9696 32.1566 12.9849 32.2407 12.9696 32.3324C12.9696 32.4241 12.9466 32.5082 12.9008 32.5847C12.8549 32.6612 12.7861 32.6994 12.6943 32.6994C12.3579 32.6994 11.9833 32.6688 11.5705 32.6076C11.1729 32.5618 10.6989 32.5388 10.1484 32.5388C9.56733 32.5388 9.04744 32.5618 8.5887 32.6076C8.14526 32.6688 7.77063 32.6994 7.46481 32.6994C7.38836 32.6994 7.32719 32.6612 7.28132 32.5847C7.23545 32.5082 7.20487 32.4241 7.18958 32.3324C7.18958 32.2407 7.21251 32.1566 7.25838 32.0801C7.30426 32.0036 7.37307 31.9578 7.46481 31.9425C7.86238 31.8966 8.19114 31.8507 8.45109 31.8049C8.72632 31.7437 8.9404 31.6443 9.09331 31.5067C9.26151 31.3538 9.37619 31.1244 9.43736 30.8186C9.51381 30.5128 9.55204 30.0846 9.55204 29.5341V19.6714Z" stroke="white" stroke-width="0.813704" mask="url(#path-2-outside-1)"/>
<path d="M27.6393 26.7359C27.5628 26.7359 27.517 26.7665 27.5017 26.8276C27.5017 26.8735 27.5017 26.9347 27.5017 27.0111C27.5017 27.8063 27.5858 28.4791 27.754 29.0295C27.9375 29.58 28.1821 30.0311 28.4879 30.3828C28.8091 30.7192 29.1837 30.9639 29.6118 31.1168C30.0553 31.2697 30.5293 31.3461 31.0339 31.3461C31.5538 31.3461 32.0584 31.3079 32.5477 31.2314C33.037 31.1397 33.4575 30.9486 33.8092 30.658C33.8857 30.5969 33.9621 30.5739 34.0386 30.5892C34.1303 30.6045 34.1991 30.6427 34.245 30.7039C34.3062 30.7651 34.3444 30.8339 34.3597 30.9103C34.375 30.9868 34.3597 31.0556 34.3138 31.1168C33.8245 31.759 33.274 32.2024 32.6624 32.4471C32.0508 32.6917 31.2939 32.8141 30.3917 32.8141C29.4742 32.8141 28.6791 32.6765 28.0063 32.4012C27.3488 32.126 26.7983 31.7437 26.3548 31.2544C25.9267 30.7498 25.6056 30.1687 25.3915 29.5112C25.1927 28.8384 25.0933 28.1121 25.0933 27.3322C25.0933 26.583 25.2157 25.8719 25.4603 25.1991C25.7203 24.5263 26.0796 23.9453 26.5383 23.456C26.9971 22.9666 27.5399 22.5767 28.1668 22.2862C28.7938 21.9957 29.4895 21.8504 30.2541 21.8504C30.8963 21.8504 31.4773 21.9651 31.9972 22.1945C32.5324 22.4085 32.9835 22.7143 33.3505 23.1119C33.7175 23.4942 34.0004 23.9606 34.1991 24.511C34.4132 25.0462 34.5203 25.6273 34.5203 26.2542C34.5203 26.5753 34.4056 26.7359 34.1762 26.7359H27.6393ZM31.8367 25.9331C32.0508 25.9331 32.1731 25.8567 32.2037 25.7037C32.2342 25.5508 32.2495 25.3673 32.2495 25.1533C32.2495 24.8322 32.196 24.5263 32.089 24.2358C31.9972 23.93 31.8596 23.6624 31.6761 23.433C31.4926 23.2037 31.2709 23.0202 31.011 22.8825C30.751 22.7449 30.4528 22.6761 30.1164 22.6761C29.7036 22.6761 29.3442 22.7526 29.0384 22.9055C28.7479 23.0431 28.4956 23.2342 28.2815 23.4789C28.0827 23.7083 27.9298 23.9835 27.8228 24.3046C27.7158 24.6257 27.6393 24.9621 27.5934 25.3138C27.5628 25.4973 27.5475 25.6502 27.5475 25.7726C27.5628 25.8796 27.6011 25.9331 27.6622 25.9331H31.8367Z" stroke="white" stroke-width="0.813704" mask="url(#path-2-outside-1)"/>
<path d="M39.2522 29.0525C39.2522 29.9088 39.3439 30.5434 39.5274 30.9562C39.7262 31.3691 40.0779 31.5755 40.5825 31.5755C40.9342 31.5755 41.2629 31.522 41.5688 31.4149C41.8899 31.3079 42.1345 31.1932 42.3027 31.0709C42.3486 31.0403 42.4021 31.0403 42.4633 31.0709C42.5245 31.0862 42.578 31.1244 42.6238 31.1856C42.6697 31.2314 42.7003 31.285 42.7156 31.3461C42.7462 31.4073 42.7462 31.4608 42.7156 31.5067C42.4251 31.9807 42.0428 32.3171 41.5688 32.5159C41.11 32.7147 40.5672 32.8141 39.9403 32.8141C38.9005 32.8141 38.1665 32.5847 37.7384 32.126C37.3102 31.652 37.0961 30.918 37.0961 29.9241V24.0294C37.0961 23.8459 37.0885 23.7006 37.0732 23.5936C37.0579 23.4865 37.012 23.4101 36.9356 23.3642C36.8591 23.3183 36.7292 23.2954 36.5457 23.2954C36.3775 23.2801 36.1328 23.2725 35.8117 23.2725C35.7658 23.2725 35.7276 23.2266 35.697 23.1348C35.6664 23.0431 35.6435 22.9437 35.6282 22.8367C35.6282 22.7296 35.6435 22.6302 35.6741 22.5385C35.7047 22.4468 35.7505 22.4009 35.8117 22.4009C36.194 22.3703 36.5227 22.3168 36.798 22.2403C37.0732 22.1486 37.3026 22.011 37.4861 21.8275C37.6848 21.644 37.8378 21.3993 37.9448 21.0935C38.0671 20.7724 38.1665 20.3595 38.243 19.8549C38.2583 19.7632 38.3194 19.6944 38.4265 19.6485C38.5335 19.6026 38.6482 19.5797 38.7705 19.5797C38.8928 19.5797 38.9999 19.6026 39.0916 19.6485C39.1987 19.6791 39.2522 19.7249 39.2522 19.7861V21.7587C39.2522 22.0033 39.2598 22.1486 39.2751 22.1945C39.3057 22.225 39.4051 22.2403 39.5733 22.2403H41.9587C42.0657 22.2403 42.1345 22.3015 42.1651 22.4238C42.1957 22.5461 42.211 22.6532 42.211 22.7449C42.211 22.8367 42.1881 22.9514 42.1422 23.089C42.1116 23.2113 42.0351 23.2725 41.9128 23.2725H39.4586C39.3516 23.2725 39.2904 23.303 39.2751 23.3642C39.2598 23.4101 39.2522 23.6012 39.2522 23.9376V29.0525Z" stroke="white" stroke-width="0.813704" mask="url(#path-2-outside-1)"/>
</svg>
