<svg width="147" height="27" viewBox="0 0 147 27" fill="none" xmlns="http://www.w3.org/2000/svg">
<path d="M18.9739 1.14524C19.1675 1.14524 19.3491 1.16945 19.5185 1.21787C19.7122 1.26628 19.7848 1.45994 19.7364 1.79884C19.6638 2.50085 19.6396 3.31179 19.6638 4.23166C19.688 5.15154 19.7243 5.99879 19.7727 6.77342C19.7727 6.87025 19.7122 6.95498 19.5911 7.0276C19.4943 7.07601 19.3733 7.11232 19.228 7.13653C19.0828 7.13653 18.9375 7.11232 18.7923 7.06391C18.6713 6.99129 18.5986 6.89446 18.5744 6.77342C18.405 5.82934 18.2355 5.09102 18.0661 4.55846C17.8966 4.0259 17.6546 3.62648 17.3399 3.36021C17.0494 3.06972 16.6379 2.88816 16.1053 2.81554C15.597 2.74292 14.9191 2.69451 14.0719 2.6703H11.8932C11.2639 2.6703 10.7555 2.6824 10.3682 2.70661C10.0051 2.73082 9.7146 2.82765 9.49673 2.9971C9.27887 3.14234 9.13362 3.38441 9.061 3.72331C8.98838 4.06221 8.95207 4.53425 8.95207 5.13943V11.4938C8.95207 11.8327 9.01259 12.0506 9.13362 12.1474C9.25466 12.22 9.3757 12.2564 9.49673 12.2564C10.6103 12.2564 11.4817 12.2079 12.1111 12.1111C12.7647 12.0143 13.2489 11.8448 13.5635 11.6028C13.9024 11.3365 14.1203 10.9976 14.2171 10.5861C14.3382 10.1745 14.435 9.64198 14.5076 8.98838C14.5318 8.84314 14.6045 8.73421 14.7255 8.66158C14.8465 8.58896 14.9797 8.55265 15.1249 8.55265C15.2702 8.55265 15.4033 8.58896 15.5243 8.66158C15.6454 8.73421 15.7059 8.84314 15.7059 8.98838C15.7059 9.3757 15.6938 9.7267 15.6696 10.0414C15.6454 10.3319 15.6212 10.6345 15.597 10.9492C15.5727 11.2397 15.5485 11.5543 15.5243 11.8932C15.5001 12.2079 15.488 12.5832 15.488 13.0189C15.488 13.7451 15.5243 14.4108 15.597 15.016C15.6696 15.597 15.7059 16.3111 15.7059 17.1583C15.7059 17.2794 15.6454 17.3762 15.5243 17.4488C15.4033 17.4972 15.2702 17.5214 15.1249 17.5214C14.9797 17.4972 14.8465 17.4609 14.7255 17.4125C14.6045 17.3399 14.5318 17.2309 14.5076 17.0857C14.435 16.3837 14.3382 15.8148 14.2171 15.3791C14.1203 14.9434 13.9024 14.6166 13.5635 14.3987C13.2489 14.1566 12.7647 13.9993 12.1111 13.9267C11.4817 13.8298 10.6103 13.7814 9.49673 13.7814C9.3757 13.7814 9.25466 13.8298 9.13362 13.9267C9.01259 13.9993 8.95207 14.1687 8.95207 14.435V20.5352C8.95207 21.3583 9.01259 22.024 9.13362 22.5323C9.27887 23.0165 9.50884 23.4038 9.82353 23.6943C10.1624 23.9605 10.5982 24.1542 11.1307 24.2752C11.6633 24.3721 12.329 24.4568 13.1278 24.5294C13.2973 24.5294 13.4183 24.602 13.4909 24.7473C13.5635 24.8683 13.5999 25.0136 13.5999 25.183C13.5999 25.3283 13.5514 25.4614 13.4546 25.5824C13.382 25.7035 13.261 25.764 13.0915 25.764C11.7843 25.764 10.6587 25.7156 9.7146 25.6187C8.79472 25.5219 7.89906 25.4735 7.0276 25.4735C6.10772 25.4735 5.19995 25.5219 4.30428 25.6187C3.40862 25.7156 2.53716 25.764 1.68991 25.764C1.54466 25.764 1.43573 25.7035 1.36311 25.5824C1.29049 25.4614 1.24207 25.3283 1.21786 25.183C1.21786 25.0378 1.25418 24.9046 1.3268 24.7836C1.39942 24.6383 1.52046 24.5536 1.68991 24.5294C2.36771 24.4568 2.92447 24.36 3.3602 24.2389C3.79593 24.1179 4.13483 23.9242 4.37691 23.658C4.61898 23.3917 4.77633 23.0407 4.84895 22.6049C4.94578 22.1692 4.99419 21.5882 4.99419 20.862V7.20915C4.99419 6.67659 4.96998 6.15614 4.92157 5.64779C4.89736 5.13944 4.82474 4.66739 4.7037 4.23166C4.58267 3.79593 4.38901 3.42072 4.12273 3.10603C3.88066 2.79133 3.54176 2.57347 3.10603 2.45243C2.83975 2.37981 2.56137 2.31929 2.27088 2.27088C1.98039 2.22247 1.70201 2.18615 1.43573 2.16195C1.29049 2.16195 1.18155 2.10143 1.10893 1.98039C1.03631 1.85936 1 1.72622 1 1.58097C1 1.43573 1.03631 1.30259 1.10893 1.18156C1.18155 1.06052 1.29049 1 1.43573 1C2.25878 1 2.9971 1.02421 3.65069 1.07262C4.30428 1.12104 5.06681 1.14524 5.93827 1.14524H18.9739Z" fill="#204A42"/>
<path d="M37.0725 19.228C37.0725 20.2205 37.0846 21.0315 37.1088 21.6609C37.1573 22.266 37.2662 22.7502 37.4356 23.1133C37.6293 23.4522 37.9077 23.6943 38.2708 23.8395C38.6339 23.9605 39.1422 24.0211 39.7958 24.0211C39.8927 24.0211 39.9653 24.0816 40.0137 24.2026C40.0863 24.2994 40.1226 24.4205 40.1226 24.5657C40.1226 24.6868 40.0984 24.8078 40.05 24.9288C40.0016 25.0499 39.9169 25.1104 39.7958 25.1104C39.6022 25.1104 39.4327 25.1225 39.2875 25.1467C39.1665 25.1467 39.0333 25.1588 38.8881 25.183C38.767 25.183 38.6218 25.1951 38.4523 25.2193C38.3071 25.2435 38.1134 25.2677 37.8714 25.2919C37.6777 25.3161 37.3993 25.3646 37.0362 25.4372C36.6973 25.5098 36.3463 25.5824 35.9832 25.655C35.6201 25.7277 35.2812 25.7882 34.9665 25.8366C34.6518 25.885 34.446 25.9092 34.3492 25.9092C33.9135 25.9092 33.6956 25.2314 33.6956 23.8758C33.6956 23.8274 33.6714 23.8032 33.623 23.8032C33.5746 23.779 33.5262 23.7911 33.4778 23.8395C32.5821 24.6141 31.6743 25.1588 30.7544 25.4735C29.8588 25.764 28.9873 25.9092 28.1401 25.9092C27.0265 25.9092 26.1067 25.7761 25.3804 25.5098C24.6542 25.2193 24.0854 24.8078 23.6738 24.2752C23.2623 23.7427 22.9718 23.0891 22.8024 22.3145C22.6329 21.5156 22.5482 20.6199 22.5482 19.6275V15.5243C22.5482 14.4834 22.524 13.6725 22.4756 13.0915C22.4272 12.5105 22.3182 12.0748 22.1488 11.7843C21.9793 11.4938 21.7252 11.3002 21.3863 11.2033C21.0474 11.1065 20.5874 11.0218 20.0064 10.9492C19.8854 10.9492 19.7886 10.8886 19.716 10.7676C19.6675 10.6466 19.6312 10.5255 19.607 10.4045C19.607 10.2835 19.6312 10.1624 19.6796 10.0414C19.7523 9.92036 19.8612 9.85984 20.0064 9.85984C20.2485 9.83563 20.5632 9.79932 20.9505 9.75091C21.362 9.70249 21.7978 9.62987 22.2577 9.53304C22.7177 9.43621 23.1897 9.33939 23.6738 9.24256C24.1822 9.12152 24.6542 9.00049 25.09 8.87945C25.4289 8.78262 25.6588 8.84314 25.7799 9.061C25.9009 9.25466 25.9614 9.42411 25.9614 9.56935V18.2113C25.9614 19.1796 25.9977 20.0027 26.0704 20.6805C26.1672 21.3583 26.3245 21.915 26.5424 22.3508C26.7603 22.7865 27.0628 23.1012 27.4502 23.2948C27.8375 23.4885 28.3216 23.5853 28.9026 23.5853C29.7256 23.5853 30.585 23.4401 31.4807 23.1496C32.3763 22.8591 33.0541 22.5081 33.5141 22.0966C33.5867 22.024 33.623 21.8908 33.623 21.6972C33.6472 21.5035 33.6593 21.3583 33.6593 21.2614V15.5243C33.6593 14.4834 33.6472 13.6725 33.623 13.0915C33.5988 12.5105 33.5141 12.0748 33.3688 11.7843C33.2236 11.4938 32.9936 11.3002 32.6789 11.2033C32.3884 11.1065 31.9527 11.0218 31.3717 10.9492C31.2507 10.925 31.1539 10.8644 31.0812 10.7676C31.0328 10.6466 30.9965 10.5255 30.9723 10.4045C30.9723 10.2593 30.9965 10.1382 31.0449 10.0414C31.1176 9.92036 31.2265 9.85984 31.3717 9.85984C32.2432 9.81143 33.042 9.70249 33.7682 9.53304C34.4945 9.36359 35.3054 9.14573 36.2011 8.87945C36.54 8.78262 36.7699 8.84314 36.891 9.061C37.012 9.25466 37.0725 9.42411 37.0725 9.56935V19.228Z" fill="#204A42"/>
<path d="M45.6345 16.65C45.6345 17.5698 45.7434 18.4534 45.9613 19.3007C46.1792 20.1237 46.506 20.862 46.9417 21.5156C47.4016 22.145 47.9826 22.6534 48.6846 23.0407C49.3866 23.4038 50.2339 23.5853 51.2264 23.5853C52.0736 23.5853 52.8967 23.5248 53.6955 23.4038C54.5186 23.2585 55.2085 22.9438 55.7652 22.4597C55.8621 22.3629 55.971 22.3387 56.092 22.3871C56.2131 22.4113 56.322 22.4718 56.4188 22.5686C56.5156 22.6413 56.5762 22.7381 56.6004 22.8591C56.6488 22.9802 56.6367 23.0891 56.5641 23.1859C55.7652 24.251 54.8332 24.9772 53.7681 25.3646C52.703 25.7277 51.4442 25.9092 49.9918 25.9092C49.0235 25.9092 48.0552 25.764 47.0869 25.4735C46.1187 25.183 45.2351 24.6989 44.4363 24.0211C43.6616 23.3433 43.0322 22.4476 42.5481 21.3341C42.0639 20.1963 41.8219 18.7923 41.8219 17.122C41.8219 15.9359 42.0155 14.8223 42.4028 13.7814C42.8144 12.7163 43.3953 11.8085 44.1458 11.0581C44.9204 10.2835 45.8645 9.67829 46.978 9.24256C48.0915 8.78262 49.3745 8.55265 50.827 8.55265C51.529 8.55265 52.2068 8.63738 52.8604 8.80683C53.5382 8.97628 54.1312 9.23045 54.6396 9.56935C55.1721 9.88405 55.5958 10.2835 55.9105 10.7676C56.2252 11.2518 56.3825 11.7964 56.3825 12.4016C56.3825 12.8373 56.2373 13.2489 55.9468 13.6362C55.6563 14.0235 55.1964 14.2171 54.567 14.2171C54.0586 14.2171 53.635 14.084 53.2961 13.8177C52.9814 13.5514 52.824 13.1641 52.824 12.6558C52.824 12.3169 52.9088 12.0385 53.0782 11.8206C53.2719 11.6028 53.3687 11.397 53.3687 11.2033C53.3687 10.7676 53.0782 10.4408 52.4973 10.2229C51.9163 9.98088 51.2748 9.85984 50.5728 9.85984C49.6529 9.85984 48.8783 10.0535 48.2489 10.4408C47.6437 10.8281 47.1354 11.3486 46.7238 12.0022C46.3365 12.6316 46.0581 13.3578 45.8887 14.1808C45.7192 14.9797 45.6345 15.8027 45.6345 16.65Z" fill="#204A42"/>
<path d="M62.521 16.2869C62.4 16.2869 62.3274 16.3353 62.3032 16.4321C62.3032 16.5047 62.3032 16.6015 62.3032 16.7226C62.3032 17.9814 62.4363 19.0465 62.7026 19.9179C62.9931 20.7894 63.3804 21.5035 63.8645 22.0603C64.3729 22.5928 64.9659 22.9802 65.6438 23.2222C66.3458 23.4643 67.0962 23.5853 67.895 23.5853C68.7181 23.5853 69.5169 23.5248 70.2915 23.4038C71.0662 23.2585 71.7319 22.9559 72.2886 22.496C72.4097 22.3992 72.5307 22.3629 72.6517 22.3871C72.797 22.4113 72.9059 22.4718 72.9785 22.5686C73.0754 22.6655 73.1359 22.7744 73.1601 22.8954C73.1843 23.0165 73.1601 23.1254 73.0875 23.2222C72.3128 24.2389 71.4414 24.9409 70.4731 25.3283C69.5048 25.7156 68.3065 25.9092 66.8783 25.9092C65.4259 25.9092 64.1671 25.6914 63.102 25.2556C62.0611 24.8199 61.1896 24.2147 60.4876 23.4401C59.8098 22.6412 59.3015 21.7214 58.9626 20.6805C58.6479 19.6153 58.4905 18.4655 58.4905 17.2309C58.4905 16.0448 58.6842 14.9191 59.0715 13.854C59.483 12.7889 60.0519 11.869 60.7781 11.0944C61.5043 10.3198 62.3637 9.7025 63.3562 9.24256C64.3487 8.78262 65.4501 8.55265 66.6605 8.55265C67.6772 8.55265 68.597 8.73421 69.4201 9.09732C70.2673 9.43622 70.9814 9.92036 71.5624 10.5497C72.1434 11.1549 72.5912 11.8932 72.9059 12.7647C73.2448 13.612 73.4143 14.5318 73.4143 15.5243C73.4143 16.0327 73.2327 16.2869 72.8696 16.2869H62.521ZM69.1659 15.016C69.5048 15.016 69.6985 14.8949 69.7469 14.6529C69.7953 14.4108 69.8195 14.1203 69.8195 13.7814C69.8195 13.2731 69.7348 12.7889 69.5653 12.329C69.4201 11.8448 69.2022 11.4212 68.9117 11.0581C68.6212 10.695 68.2702 10.4045 67.8587 10.1866C67.4472 9.96877 66.9751 9.85984 66.4426 9.85984C65.789 9.85984 65.2201 9.98088 64.736 10.2229C64.276 10.4408 63.8766 10.7434 63.5377 11.1307C63.223 11.4938 62.981 11.9296 62.8115 12.4379C62.6421 12.9463 62.521 13.4788 62.4484 14.0356C62.4 14.3261 62.3758 14.5681 62.3758 14.7618C62.4 14.9313 62.4605 15.016 62.5573 15.016H69.1659Z" fill="#204A42"/>
<path d="M81.8494 21.1525C81.8494 21.7577 81.8615 22.266 81.8858 22.6776C81.9342 23.0891 82.0673 23.428 82.2852 23.6943C82.503 23.9605 82.8419 24.1663 83.3019 24.3115C83.7618 24.4568 84.4275 24.5657 85.299 24.6383C85.4442 24.6626 85.5531 24.7352 85.6258 24.8562C85.6984 24.953 85.7347 25.0741 85.7347 25.2193C85.7347 25.3404 85.6984 25.4493 85.6258 25.5461C85.5531 25.6672 85.4442 25.7277 85.299 25.7277C84.2581 25.7277 83.3382 25.6793 82.5393 25.5824C81.7405 25.5098 80.978 25.4735 80.2518 25.4735C79.4771 25.4735 78.7025 25.5098 77.9279 25.5824C77.1775 25.6793 76.4149 25.7277 75.6403 25.7277C75.5193 25.7277 75.4224 25.6672 75.3498 25.5461C75.2772 25.4493 75.2409 25.3404 75.2409 25.2193C75.2409 25.0741 75.2772 24.953 75.3498 24.8562C75.4224 24.7352 75.5314 24.6626 75.6766 24.6383C76.3544 24.5657 76.8749 24.4568 77.238 24.3115C77.6253 24.1663 77.9037 23.9726 78.0731 23.7306C78.2426 23.4643 78.3394 23.1496 78.3636 22.7865C78.412 22.3992 78.4362 21.9271 78.4362 21.3704V16.069C78.4362 14.8828 78.412 13.9509 78.3636 13.2731C78.3152 12.571 78.1942 12.0385 78.0005 11.6754C77.831 11.2881 77.5527 11.0339 77.1653 10.9129C76.778 10.7918 76.2455 10.7071 75.5677 10.6587C75.4466 10.6587 75.3498 10.5982 75.2772 10.4771C75.2288 10.3561 75.2046 10.2351 75.2046 10.114C75.2046 9.99298 75.2288 9.87194 75.2772 9.75091C75.3498 9.62987 75.4587 9.56935 75.604 9.56935C76.0881 9.52094 76.7538 9.47252 77.6011 9.42411C78.4725 9.35149 79.3561 9.19414 80.2518 8.95207C80.5907 8.85524 80.869 8.84314 81.0869 8.91576C81.3048 8.98838 81.4016 9.19414 81.3774 9.53304L81.3048 11.8569C81.3048 11.9054 81.3169 11.9417 81.3411 11.9659C81.3653 11.9659 81.4016 11.9417 81.45 11.8932C81.9584 10.8765 82.5757 10.0656 83.3019 9.46042C84.0523 8.85524 85.0448 8.55265 86.2794 8.55265C87.2961 8.55265 88.0465 8.81893 88.5306 9.35149C89.0148 9.85984 89.2568 10.4892 89.2568 11.2397C89.2568 11.6512 89.0995 12.0264 88.7848 12.3653C88.4701 12.7042 88.0223 12.8736 87.4413 12.8736C86.8845 12.8736 86.4972 12.7405 86.2794 12.4742C86.0615 12.2079 85.9526 11.9175 85.9526 11.6028C85.9526 11.2639 85.8799 10.9976 85.7347 10.8039C85.6137 10.6103 85.3353 10.5134 84.8995 10.5134C84.4396 10.5134 84.016 10.6708 83.6287 10.9855C83.2656 11.276 82.9509 11.627 82.6846 12.0385C82.4183 12.45 82.2125 12.8736 82.0673 13.3094C81.9221 13.7451 81.8494 14.084 81.8494 14.3261V21.1525Z" fill="#204A42"/>
<path d="M93.9205 5.10312C93.9205 4.30429 93.6663 3.66279 93.158 3.17865C92.6739 2.6703 91.8145 2.35561 90.5799 2.23457C90.4589 2.23457 90.3621 2.17405 90.2894 2.05302C90.241 1.90777 90.2168 1.76253 90.2168 1.61728C90.2168 1.47204 90.241 1.3389 90.2894 1.21787C90.3621 1.09683 90.471 1.03631 90.6162 1.03631C90.9067 1.03631 91.3667 1.03631 91.996 1.03631C92.6254 1.03631 93.2669 1.06052 93.9205 1.10893C94.5741 1.13314 95.1672 1.18155 95.6998 1.25418C96.2323 1.3268 96.547 1.42363 96.6438 1.54466L111.277 18.9375C111.568 19.2522 111.713 19.1917 111.713 18.756V9.85984C111.713 9.47253 111.713 9.00049 111.713 8.44372C111.713 7.86275 111.701 7.29388 111.677 6.73711C111.652 6.15614 111.616 5.61147 111.568 5.10312C111.543 4.59477 111.483 4.19535 111.386 3.90487C111.265 3.54176 111.144 3.26338 111.023 3.06972C110.902 2.85185 110.732 2.69451 110.515 2.59768C110.321 2.47664 110.067 2.40402 109.752 2.37981C109.462 2.3314 109.098 2.28298 108.663 2.23457C108.542 2.23457 108.445 2.17405 108.372 2.05302C108.324 1.90777 108.3 1.76253 108.3 1.61728C108.3 1.47204 108.324 1.3389 108.372 1.21787C108.421 1.09683 108.517 1.03631 108.663 1.03631C109.244 1.03631 109.861 1.07262 110.515 1.14524C111.192 1.21787 111.87 1.25418 112.548 1.25418C113.177 1.25418 113.795 1.21787 114.4 1.14524C115.029 1.07262 115.731 1.03631 116.506 1.03631C116.651 1.03631 116.76 1.09683 116.833 1.21787C116.905 1.3389 116.942 1.47204 116.942 1.61728C116.942 1.76253 116.905 1.90777 116.833 2.05302C116.76 2.17405 116.651 2.23457 116.506 2.23457C116.07 2.28298 115.719 2.31929 115.453 2.3435C115.211 2.36771 114.993 2.42823 114.799 2.52506C114.63 2.62188 114.472 2.77923 114.327 2.9971C114.182 3.19075 114.025 3.49334 113.855 3.90487C113.734 4.19535 113.637 4.59477 113.565 5.10312C113.492 5.61147 113.432 6.15614 113.383 6.73711C113.359 7.31808 113.347 7.89906 113.347 8.48003C113.347 9.061 113.347 9.56935 113.347 10.0051V25.7277C113.347 25.8003 113.274 25.8608 113.129 25.9092C113.008 25.9576 112.851 25.9818 112.657 25.9818C112.487 26.0061 112.318 26.0061 112.149 25.9818C111.979 25.9576 111.87 25.9092 111.822 25.8366L96.2081 7.31808C96.0144 7.10022 95.8692 7.00339 95.7724 7.0276C95.6755 7.0276 95.6271 7.18494 95.6271 7.49964V20.7168C95.6271 21.5882 95.6876 22.266 95.8087 22.7502C95.9539 23.2343 96.1597 23.5974 96.426 23.8395C96.7165 24.0574 97.0675 24.2147 97.479 24.3115C97.8905 24.3842 98.3746 24.4568 98.9314 24.5294C99.0767 24.5536 99.1856 24.6262 99.2582 24.7473C99.3308 24.8683 99.355 25.0015 99.3308 25.1467C99.3308 25.2919 99.2945 25.4251 99.2219 25.5461C99.1493 25.6672 99.0403 25.7277 98.8951 25.7277C98.3625 25.7277 97.7695 25.6793 97.1159 25.5824C96.4865 25.5098 95.7361 25.4735 94.8646 25.4735C93.9447 25.4735 93.1217 25.5098 92.3955 25.5824C91.6935 25.6793 91.1004 25.7277 90.6162 25.7277C90.4952 25.7277 90.3984 25.6672 90.3257 25.5461C90.2531 25.4251 90.2047 25.2919 90.1805 25.1467C90.1805 25.0015 90.2168 24.8683 90.2894 24.7473C90.3621 24.6262 90.471 24.5536 90.6162 24.5294C91.2456 24.4568 91.7661 24.3842 92.1776 24.3115C92.6133 24.2147 92.9522 24.0574 93.1943 23.8395C93.4606 23.5974 93.6421 23.2343 93.739 22.7502C93.86 22.266 93.9205 21.5882 93.9205 20.7168V5.10312Z" fill="#204A42"/>
<path d="M122.554 16.2869C122.433 16.2869 122.361 16.3353 122.337 16.4321C122.337 16.5047 122.337 16.6015 122.337 16.7226C122.337 17.9814 122.47 19.0465 122.736 19.9179C123.026 20.7894 123.414 21.5035 123.898 22.0603C124.406 22.5928 124.999 22.9802 125.677 23.2222C126.379 23.4643 127.13 23.5853 127.928 23.5853C128.751 23.5853 129.55 23.5248 130.325 23.4038C131.1 23.2585 131.765 22.9559 132.322 22.496C132.443 22.3992 132.564 22.3629 132.685 22.3871C132.83 22.4113 132.939 22.4718 133.012 22.5686C133.109 22.6655 133.169 22.7744 133.194 22.8954C133.218 23.0165 133.194 23.1254 133.121 23.2222C132.346 24.2389 131.475 24.9409 130.507 25.3283C129.538 25.7156 128.34 25.9092 126.912 25.9092C125.459 25.9092 124.201 25.6914 123.135 25.2556C122.094 24.8199 121.223 24.2147 120.521 23.4401C119.843 22.6412 119.335 21.7214 118.996 20.6805C118.681 19.6153 118.524 18.4655 118.524 17.2309C118.524 16.0448 118.718 14.9191 119.105 13.854C119.516 12.7889 120.085 11.869 120.812 11.0944C121.538 10.3198 122.397 9.7025 123.39 9.24256C124.382 8.78262 125.484 8.55265 126.694 8.55265C127.711 8.55265 128.63 8.73421 129.453 9.09732C130.301 9.43622 131.015 9.92036 131.596 10.5497C132.177 11.1549 132.625 11.8932 132.939 12.7647C133.278 13.612 133.448 14.5318 133.448 15.5243C133.448 16.0327 133.266 16.2869 132.903 16.2869H122.554ZM129.199 15.016C129.538 15.016 129.732 14.8949 129.78 14.6529C129.829 14.4108 129.853 14.1203 129.853 13.7814C129.853 13.2731 129.768 12.7889 129.599 12.329C129.453 11.8448 129.236 11.4212 128.945 11.0581C128.655 10.695 128.304 10.4045 127.892 10.1866C127.481 9.96877 127.009 9.85984 126.476 9.85984C125.822 9.85984 125.254 9.98088 124.769 10.2229C124.309 10.4408 123.91 10.7434 123.571 11.1307C123.256 11.4938 123.014 11.9296 122.845 12.4379C122.675 12.9463 122.554 13.4788 122.482 14.0356C122.433 14.3261 122.409 14.5681 122.409 14.7618C122.433 14.9313 122.494 15.016 122.591 15.016H129.199Z" fill="#204A42"/>
<path d="M140.939 19.9542C140.939 21.3099 141.084 22.3145 141.375 22.968C141.689 23.6216 142.246 23.9484 143.045 23.9484C143.602 23.9484 144.122 23.8637 144.606 23.6943C145.115 23.5248 145.502 23.3433 145.768 23.1496C145.841 23.1012 145.925 23.1012 146.022 23.1496C146.119 23.1738 146.204 23.2343 146.276 23.3312C146.349 23.4038 146.397 23.4885 146.422 23.5853C146.47 23.6822 146.47 23.7669 146.422 23.8395C145.962 24.5899 145.357 25.1225 144.606 25.4372C143.88 25.7519 143.021 25.9092 142.028 25.9092C140.382 25.9092 139.22 25.5461 138.542 24.8199C137.864 24.0695 137.526 22.9075 137.526 21.3341V12.0022C137.526 11.7117 137.513 11.4817 137.489 11.3123C137.465 11.1428 137.392 11.0218 137.271 10.9492C137.15 10.8765 136.945 10.8402 136.654 10.8402C136.388 10.816 136 10.8039 135.492 10.8039C135.42 10.8039 135.359 10.7313 135.311 10.5861C135.262 10.4408 135.226 10.2835 135.202 10.114C135.202 9.94457 135.226 9.78722 135.274 9.64198C135.323 9.49673 135.395 9.42411 135.492 9.42411C136.097 9.3757 136.618 9.29097 137.054 9.16994C137.489 9.02469 137.852 8.80683 138.143 8.51634C138.458 8.22585 138.7 7.83854 138.869 7.35439C139.063 6.84604 139.22 6.19245 139.341 5.39361C139.365 5.24837 139.462 5.13943 139.632 5.06681C139.801 4.99419 139.983 4.95788 140.176 4.95788C140.37 4.95788 140.539 4.99419 140.685 5.06681C140.854 5.11523 140.939 5.18785 140.939 5.28468V8.40741C140.939 8.79472 140.951 9.02469 140.975 9.09732C141.023 9.14573 141.181 9.16994 141.447 9.16994H145.223C145.393 9.16994 145.502 9.26676 145.55 9.46042C145.599 9.65408 145.623 9.82353 145.623 9.96877C145.623 10.114 145.587 10.2956 145.514 10.5134C145.466 10.7071 145.344 10.8039 145.151 10.8039H141.266C141.096 10.8039 140.999 10.8523 140.975 10.9492C140.951 11.0218 140.939 11.3244 140.939 11.8569V19.9542Z" fill="#204A42"/>
<path d="M18.9739 1.14524C19.1675 1.14524 19.3491 1.16945 19.5185 1.21787C19.7122 1.26628 19.7848 1.45994 19.7364 1.79884C19.6638 2.50085 19.6396 3.31179 19.6638 4.23166C19.688 5.15154 19.7243 5.99879 19.7727 6.77342C19.7727 6.87025 19.7122 6.95498 19.5911 7.0276C19.4943 7.07601 19.3733 7.11232 19.228 7.13653C19.0828 7.13653 18.9375 7.11232 18.7923 7.06391C18.6713 6.99129 18.5986 6.89446 18.5744 6.77342C18.405 5.82934 18.2355 5.09102 18.0661 4.55846C17.8966 4.0259 17.6546 3.62648 17.3399 3.36021C17.0494 3.06972 16.6379 2.88816 16.1053 2.81554C15.597 2.74292 14.9191 2.69451 14.0719 2.6703H11.8932C11.2639 2.6703 10.7555 2.6824 10.3682 2.70661C10.0051 2.73082 9.7146 2.82765 9.49673 2.9971C9.27887 3.14234 9.13362 3.38441 9.061 3.72331C8.98838 4.06221 8.95207 4.53425 8.95207 5.13943V11.4938C8.95207 11.8327 9.01259 12.0506 9.13362 12.1474C9.25466 12.22 9.3757 12.2564 9.49673 12.2564C10.6103 12.2564 11.4817 12.2079 12.1111 12.1111C12.7647 12.0143 13.2489 11.8448 13.5635 11.6028C13.9024 11.3365 14.1203 10.9976 14.2171 10.5861C14.3382 10.1745 14.435 9.64198 14.5076 8.98838C14.5318 8.84314 14.6045 8.73421 14.7255 8.66158C14.8465 8.58896 14.9797 8.55265 15.1249 8.55265C15.2702 8.55265 15.4033 8.58896 15.5243 8.66158C15.6454 8.73421 15.7059 8.84314 15.7059 8.98838C15.7059 9.3757 15.6938 9.7267 15.6696 10.0414C15.6454 10.3319 15.6212 10.6345 15.597 10.9492C15.5727 11.2397 15.5485 11.5543 15.5243 11.8932C15.5001 12.2079 15.488 12.5832 15.488 13.0189C15.488 13.7451 15.5243 14.4108 15.597 15.016C15.6696 15.597 15.7059 16.3111 15.7059 17.1583C15.7059 17.2794 15.6454 17.3762 15.5243 17.4488C15.4033 17.4972 15.2702 17.5214 15.1249 17.5214C14.9797 17.4972 14.8465 17.4609 14.7255 17.4125C14.6045 17.3399 14.5318 17.2309 14.5076 17.0857C14.435 16.3837 14.3382 15.8148 14.2171 15.3791C14.1203 14.9434 13.9024 14.6166 13.5635 14.3987C13.2489 14.1566 12.7647 13.9993 12.1111 13.9267C11.4817 13.8298 10.6103 13.7814 9.49673 13.7814C9.3757 13.7814 9.25466 13.8298 9.13362 13.9267C9.01259 13.9993 8.95207 14.1687 8.95207 14.435V20.5352C8.95207 21.3583 9.01259 22.024 9.13362 22.5323C9.27887 23.0165 9.50884 23.4038 9.82353 23.6943C10.1624 23.9605 10.5982 24.1542 11.1307 24.2752C11.6633 24.3721 12.329 24.4568 13.1278 24.5294C13.2973 24.5294 13.4183 24.602 13.4909 24.7473C13.5635 24.8683 13.5999 25.0136 13.5999 25.183C13.5999 25.3283 13.5514 25.4614 13.4546 25.5824C13.382 25.7035 13.261 25.764 13.0915 25.764C11.7843 25.764 10.6587 25.7156 9.7146 25.6187C8.79472 25.5219 7.89906 25.4735 7.0276 25.4735C6.10772 25.4735 5.19995 25.5219 4.30428 25.6187C3.40862 25.7156 2.53716 25.764 1.68991 25.764C1.54466 25.764 1.43573 25.7035 1.36311 25.5824C1.29049 25.4614 1.24207 25.3283 1.21786 25.183C1.21786 25.0378 1.25418 24.9046 1.3268 24.7836C1.39942 24.6383 1.52046 24.5536 1.68991 24.5294C2.36771 24.4568 2.92447 24.36 3.3602 24.2389C3.79593 24.1179 4.13483 23.9242 4.37691 23.658C4.61898 23.3917 4.77633 23.0407 4.84895 22.6049C4.94578 22.1692 4.99419 21.5882 4.99419 20.862V7.20915C4.99419 6.67659 4.96998 6.15614 4.92157 5.64779C4.89736 5.13944 4.82474 4.66739 4.7037 4.23166C4.58267 3.79593 4.38901 3.42072 4.12273 3.10603C3.88066 2.79133 3.54176 2.57347 3.10603 2.45243C2.83975 2.37981 2.56137 2.31929 2.27088 2.27088C1.98039 2.22247 1.70201 2.18615 1.43573 2.16195C1.29049 2.16195 1.18155 2.10143 1.10893 1.98039C1.03631 1.85936 1 1.72622 1 1.58097C1 1.43573 1.03631 1.30259 1.10893 1.18156C1.18155 1.06052 1.29049 1 1.43573 1C2.25878 1 2.9971 1.02421 3.65069 1.07262C4.30428 1.12104 5.06681 1.14524 5.93827 1.14524H18.9739Z" stroke="#204A42"/>
<path d="M37.0725 19.228C37.0725 20.2205 37.0846 21.0315 37.1088 21.6609C37.1573 22.266 37.2662 22.7502 37.4356 23.1133C37.6293 23.4522 37.9077 23.6943 38.2708 23.8395C38.6339 23.9605 39.1422 24.0211 39.7958 24.0211C39.8927 24.0211 39.9653 24.0816 40.0137 24.2026C40.0863 24.2994 40.1226 24.4205 40.1226 24.5657C40.1226 24.6868 40.0984 24.8078 40.05 24.9288C40.0016 25.0499 39.9169 25.1104 39.7958 25.1104C39.6022 25.1104 39.4327 25.1225 39.2875 25.1467C39.1665 25.1467 39.0333 25.1588 38.8881 25.183C38.767 25.183 38.6218 25.1951 38.4523 25.2193C38.3071 25.2435 38.1134 25.2677 37.8714 25.2919C37.6777 25.3161 37.3993 25.3646 37.0362 25.4372C36.6973 25.5098 36.3463 25.5824 35.9832 25.655C35.6201 25.7277 35.2812 25.7882 34.9665 25.8366C34.6518 25.885 34.446 25.9092 34.3492 25.9092C33.9135 25.9092 33.6956 25.2314 33.6956 23.8758C33.6956 23.8274 33.6714 23.8032 33.623 23.8032C33.5746 23.779 33.5262 23.7911 33.4778 23.8395C32.5821 24.6141 31.6743 25.1588 30.7544 25.4735C29.8588 25.764 28.9873 25.9092 28.1401 25.9092C27.0265 25.9092 26.1067 25.7761 25.3804 25.5098C24.6542 25.2193 24.0854 24.8078 23.6738 24.2752C23.2623 23.7427 22.9718 23.0891 22.8024 22.3145C22.6329 21.5156 22.5482 20.6199 22.5482 19.6275V15.5243C22.5482 14.4834 22.524 13.6725 22.4756 13.0915C22.4272 12.5105 22.3182 12.0748 22.1488 11.7843C21.9793 11.4938 21.7252 11.3002 21.3863 11.2033C21.0474 11.1065 20.5874 11.0218 20.0064 10.9492C19.8854 10.9492 19.7886 10.8886 19.716 10.7676C19.6675 10.6466 19.6312 10.5255 19.607 10.4045C19.607 10.2835 19.6312 10.1624 19.6796 10.0414C19.7523 9.92036 19.8612 9.85984 20.0064 9.85984C20.2485 9.83563 20.5632 9.79932 20.9505 9.75091C21.362 9.70249 21.7978 9.62987 22.2577 9.53304C22.7177 9.43621 23.1897 9.33939 23.6738 9.24256C24.1822 9.12152 24.6542 9.00049 25.09 8.87945C25.4289 8.78262 25.6588 8.84314 25.7799 9.061C25.9009 9.25466 25.9614 9.42411 25.9614 9.56935V18.2113C25.9614 19.1796 25.9977 20.0027 26.0704 20.6805C26.1672 21.3583 26.3245 21.915 26.5424 22.3508C26.7603 22.7865 27.0628 23.1012 27.4502 23.2948C27.8375 23.4885 28.3216 23.5853 28.9026 23.5853C29.7256 23.5853 30.585 23.4401 31.4807 23.1496C32.3763 22.8591 33.0541 22.5081 33.5141 22.0966C33.5867 22.024 33.623 21.8908 33.623 21.6972C33.6472 21.5035 33.6593 21.3583 33.6593 21.2614V15.5243C33.6593 14.4834 33.6472 13.6725 33.623 13.0915C33.5988 12.5105 33.5141 12.0748 33.3688 11.7843C33.2236 11.4938 32.9936 11.3002 32.6789 11.2033C32.3884 11.1065 31.9527 11.0218 31.3717 10.9492C31.2507 10.925 31.1539 10.8644 31.0812 10.7676C31.0328 10.6466 30.9965 10.5255 30.9723 10.4045C30.9723 10.2593 30.9965 10.1382 31.0449 10.0414C31.1176 9.92036 31.2265 9.85984 31.3717 9.85984C32.2432 9.81143 33.042 9.70249 33.7682 9.53304C34.4945 9.36359 35.3054 9.14573 36.2011 8.87945C36.54 8.78262 36.7699 8.84314 36.891 9.061C37.012 9.25466 37.0725 9.42411 37.0725 9.56935V19.228Z" stroke="#204A42"/>
<path d="M45.6345 16.65C45.6345 17.5698 45.7434 18.4534 45.9613 19.3007C46.1792 20.1237 46.506 20.862 46.9417 21.5156C47.4016 22.145 47.9826 22.6534 48.6846 23.0407C49.3866 23.4038 50.2339 23.5853 51.2264 23.5853C52.0736 23.5853 52.8967 23.5248 53.6955 23.4038C54.5186 23.2585 55.2085 22.9438 55.7652 22.4597C55.8621 22.3629 55.971 22.3387 56.092 22.3871C56.2131 22.4113 56.322 22.4718 56.4188 22.5686C56.5156 22.6413 56.5762 22.7381 56.6004 22.8591C56.6488 22.9802 56.6367 23.0891 56.5641 23.1859C55.7652 24.251 54.8332 24.9772 53.7681 25.3646C52.703 25.7277 51.4442 25.9092 49.9918 25.9092C49.0235 25.9092 48.0552 25.764 47.0869 25.4735C46.1187 25.183 45.2351 24.6989 44.4363 24.0211C43.6616 23.3433 43.0322 22.4476 42.5481 21.3341C42.0639 20.1963 41.8219 18.7923 41.8219 17.122C41.8219 15.9359 42.0155 14.8223 42.4028 13.7814C42.8144 12.7163 43.3953 11.8085 44.1458 11.0581C44.9204 10.2835 45.8645 9.67829 46.978 9.24256C48.0915 8.78262 49.3745 8.55265 50.827 8.55265C51.529 8.55265 52.2068 8.63738 52.8604 8.80683C53.5382 8.97628 54.1312 9.23045 54.6396 9.56935C55.1721 9.88405 55.5958 10.2835 55.9105 10.7676C56.2252 11.2518 56.3825 11.7964 56.3825 12.4016C56.3825 12.8373 56.2373 13.2489 55.9468 13.6362C55.6563 14.0235 55.1964 14.2171 54.567 14.2171C54.0586 14.2171 53.635 14.084 53.2961 13.8177C52.9814 13.5514 52.824 13.1641 52.824 12.6558C52.824 12.3169 52.9088 12.0385 53.0782 11.8206C53.2719 11.6028 53.3687 11.397 53.3687 11.2033C53.3687 10.7676 53.0782 10.4408 52.4973 10.2229C51.9163 9.98088 51.2748 9.85984 50.5728 9.85984C49.6529 9.85984 48.8783 10.0535 48.2489 10.4408C47.6437 10.8281 47.1354 11.3486 46.7238 12.0022C46.3365 12.6316 46.0581 13.3578 45.8887 14.1808C45.7192 14.9797 45.6345 15.8027 45.6345 16.65Z" stroke="#204A42"/>
<path d="M62.521 16.2869C62.4 16.2869 62.3274 16.3353 62.3032 16.4321C62.3032 16.5047 62.3032 16.6015 62.3032 16.7226C62.3032 17.9814 62.4363 19.0465 62.7026 19.9179C62.9931 20.7894 63.3804 21.5035 63.8645 22.0603C64.3729 22.5928 64.9659 22.9802 65.6438 23.2222C66.3458 23.4643 67.0962 23.5853 67.895 23.5853C68.7181 23.5853 69.5169 23.5248 70.2915 23.4038C71.0662 23.2585 71.7319 22.9559 72.2886 22.496C72.4097 22.3992 72.5307 22.3629 72.6517 22.3871C72.797 22.4113 72.9059 22.4718 72.9785 22.5686C73.0754 22.6655 73.1359 22.7744 73.1601 22.8954C73.1843 23.0165 73.1601 23.1254 73.0875 23.2222C72.3128 24.2389 71.4414 24.9409 70.4731 25.3283C69.5048 25.7156 68.3065 25.9092 66.8783 25.9092C65.4259 25.9092 64.1671 25.6914 63.102 25.2556C62.0611 24.8199 61.1896 24.2147 60.4876 23.4401C59.8098 22.6412 59.3015 21.7214 58.9626 20.6805C58.6479 19.6153 58.4905 18.4655 58.4905 17.2309C58.4905 16.0448 58.6842 14.9191 59.0715 13.854C59.483 12.7889 60.0519 11.869 60.7781 11.0944C61.5043 10.3198 62.3637 9.7025 63.3562 9.24256C64.3487 8.78262 65.4501 8.55265 66.6605 8.55265C67.6772 8.55265 68.597 8.73421 69.4201 9.09732C70.2673 9.43622 70.9814 9.92036 71.5624 10.5497C72.1434 11.1549 72.5912 11.8932 72.9059 12.7647C73.2448 13.612 73.4143 14.5318 73.4143 15.5243C73.4143 16.0327 73.2327 16.2869 72.8696 16.2869H62.521ZM69.1659 15.016C69.5048 15.016 69.6985 14.8949 69.7469 14.6529C69.7953 14.4108 69.8195 14.1203 69.8195 13.7814C69.8195 13.2731 69.7348 12.7889 69.5653 12.329C69.4201 11.8448 69.2022 11.4212 68.9117 11.0581C68.6212 10.695 68.2702 10.4045 67.8587 10.1866C67.4472 9.96877 66.9751 9.85984 66.4426 9.85984C65.789 9.85984 65.2201 9.98088 64.736 10.2229C64.276 10.4408 63.8766 10.7434 63.5377 11.1307C63.223 11.4938 62.981 11.9296 62.8115 12.4379C62.6421 12.9463 62.521 13.4788 62.4484 14.0356C62.4 14.3261 62.3758 14.5681 62.3758 14.7618C62.4 14.9313 62.4605 15.016 62.5573 15.016H69.1659Z" stroke="#204A42"/>
<path d="M81.8494 21.1525C81.8494 21.7577 81.8615 22.266 81.8858 22.6776C81.9342 23.0891 82.0673 23.428 82.2852 23.6943C82.503 23.9605 82.8419 24.1663 83.3019 24.3115C83.7618 24.4568 84.4275 24.5657 85.299 24.6383C85.4442 24.6626 85.5531 24.7352 85.6258 24.8562C85.6984 24.953 85.7347 25.0741 85.7347 25.2193C85.7347 25.3404 85.6984 25.4493 85.6258 25.5461C85.5531 25.6672 85.4442 25.7277 85.299 25.7277C84.2581 25.7277 83.3382 25.6793 82.5393 25.5824C81.7405 25.5098 80.978 25.4735 80.2518 25.4735C79.4771 25.4735 78.7025 25.5098 77.9279 25.5824C77.1775 25.6793 76.4149 25.7277 75.6403 25.7277C75.5193 25.7277 75.4224 25.6672 75.3498 25.5461C75.2772 25.4493 75.2409 25.3404 75.2409 25.2193C75.2409 25.0741 75.2772 24.953 75.3498 24.8562C75.4224 24.7352 75.5314 24.6626 75.6766 24.6383C76.3544 24.5657 76.8749 24.4568 77.238 24.3115C77.6253 24.1663 77.9037 23.9726 78.0731 23.7306C78.2426 23.4643 78.3394 23.1496 78.3636 22.7865C78.412 22.3992 78.4362 21.9271 78.4362 21.3704V16.069C78.4362 14.8828 78.412 13.9509 78.3636 13.2731C78.3152 12.571 78.1942 12.0385 78.0005 11.6754C77.831 11.2881 77.5527 11.0339 77.1653 10.9129C76.778 10.7918 76.2455 10.7071 75.5677 10.6587C75.4466 10.6587 75.3498 10.5982 75.2772 10.4771C75.2288 10.3561 75.2046 10.2351 75.2046 10.114C75.2046 9.99298 75.2288 9.87194 75.2772 9.75091C75.3498 9.62987 75.4587 9.56935 75.604 9.56935C76.0881 9.52094 76.7538 9.47252 77.6011 9.42411C78.4725 9.35149 79.3561 9.19414 80.2518 8.95207C80.5907 8.85524 80.869 8.84314 81.0869 8.91576C81.3048 8.98838 81.4016 9.19414 81.3774 9.53304L81.3048 11.8569C81.3048 11.9054 81.3169 11.9417 81.3411 11.9659C81.3653 11.9659 81.4016 11.9417 81.45 11.8932C81.9584 10.8765 82.5757 10.0656 83.3019 9.46042C84.0523 8.85524 85.0448 8.55265 86.2794 8.55265C87.2961 8.55265 88.0465 8.81893 88.5306 9.35149C89.0148 9.85984 89.2568 10.4892 89.2568 11.2397C89.2568 11.6512 89.0995 12.0264 88.7848 12.3653C88.4701 12.7042 88.0223 12.8736 87.4413 12.8736C86.8845 12.8736 86.4972 12.7405 86.2794 12.4742C86.0615 12.2079 85.9526 11.9175 85.9526 11.6028C85.9526 11.2639 85.8799 10.9976 85.7347 10.8039C85.6137 10.6103 85.3353 10.5134 84.8995 10.5134C84.4396 10.5134 84.016 10.6708 83.6287 10.9855C83.2656 11.276 82.9509 11.627 82.6846 12.0385C82.4183 12.45 82.2125 12.8736 82.0673 13.3094C81.9221 13.7451 81.8494 14.084 81.8494 14.3261V21.1525Z" stroke="#204A42"/>
<path d="M93.9205 5.10312C93.9205 4.30429 93.6663 3.66279 93.158 3.17865C92.6739 2.6703 91.8145 2.35561 90.5799 2.23457C90.4589 2.23457 90.3621 2.17405 90.2894 2.05302C90.241 1.90777 90.2168 1.76253 90.2168 1.61728C90.2168 1.47204 90.241 1.3389 90.2894 1.21787C90.3621 1.09683 90.471 1.03631 90.6162 1.03631C90.9067 1.03631 91.3667 1.03631 91.996 1.03631C92.6254 1.03631 93.2669 1.06052 93.9205 1.10893C94.5741 1.13314 95.1672 1.18155 95.6998 1.25418C96.2323 1.3268 96.547 1.42363 96.6438 1.54466L111.277 18.9375C111.568 19.2522 111.713 19.1917 111.713 18.756V9.85984C111.713 9.47253 111.713 9.00049 111.713 8.44372C111.713 7.86275 111.701 7.29388 111.677 6.73711C111.652 6.15614 111.616 5.61147 111.568 5.10312C111.543 4.59477 111.483 4.19535 111.386 3.90487C111.265 3.54176 111.144 3.26338 111.023 3.06972C110.902 2.85185 110.732 2.69451 110.515 2.59768C110.321 2.47664 110.067 2.40402 109.752 2.37981C109.462 2.3314 109.098 2.28298 108.663 2.23457C108.542 2.23457 108.445 2.17405 108.372 2.05302C108.324 1.90777 108.3 1.76253 108.3 1.61728C108.3 1.47204 108.324 1.3389 108.372 1.21787C108.421 1.09683 108.517 1.03631 108.663 1.03631C109.244 1.03631 109.861 1.07262 110.515 1.14524C111.192 1.21787 111.87 1.25418 112.548 1.25418C113.177 1.25418 113.795 1.21787 114.4 1.14524C115.029 1.07262 115.731 1.03631 116.506 1.03631C116.651 1.03631 116.76 1.09683 116.833 1.21787C116.905 1.3389 116.942 1.47204 116.942 1.61728C116.942 1.76253 116.905 1.90777 116.833 2.05302C116.76 2.17405 116.651 2.23457 116.506 2.23457C116.07 2.28298 115.719 2.31929 115.453 2.3435C115.211 2.36771 114.993 2.42823 114.799 2.52506C114.63 2.62188 114.472 2.77923 114.327 2.9971C114.182 3.19075 114.025 3.49334 113.855 3.90487C113.734 4.19535 113.637 4.59477 113.565 5.10312C113.492 5.61147 113.432 6.15614 113.383 6.73711C113.359 7.31808 113.347 7.89906 113.347 8.48003C113.347 9.061 113.347 9.56935 113.347 10.0051V25.7277C113.347 25.8003 113.274 25.8608 113.129 25.9092C113.008 25.9576 112.851 25.9818 112.657 25.9818C112.487 26.0061 112.318 26.0061 112.149 25.9818C111.979 25.9576 111.87 25.9092 111.822 25.8366L96.2081 7.31808C96.0144 7.10022 95.8692 7.00339 95.7724 7.0276C95.6755 7.0276 95.6271 7.18494 95.6271 7.49964V20.7168C95.6271 21.5882 95.6876 22.266 95.8087 22.7502C95.9539 23.2343 96.1597 23.5974 96.426 23.8395C96.7165 24.0574 97.0675 24.2147 97.479 24.3115C97.8905 24.3842 98.3746 24.4568 98.9314 24.5294C99.0767 24.5536 99.1856 24.6262 99.2582 24.7473C99.3308 24.8683 99.355 25.0015 99.3308 25.1467C99.3308 25.2919 99.2945 25.4251 99.2219 25.5461C99.1493 25.6672 99.0403 25.7277 98.8951 25.7277C98.3625 25.7277 97.7695 25.6793 97.1159 25.5824C96.4865 25.5098 95.7361 25.4735 94.8646 25.4735C93.9447 25.4735 93.1217 25.5098 92.3955 25.5824C91.6935 25.6793 91.1004 25.7277 90.6162 25.7277C90.4952 25.7277 90.3984 25.6672 90.3257 25.5461C90.2531 25.4251 90.2047 25.2919 90.1805 25.1467C90.1805 25.0015 90.2168 24.8683 90.2894 24.7473C90.3621 24.6262 90.471 24.5536 90.6162 24.5294C91.2456 24.4568 91.7661 24.3842 92.1776 24.3115C92.6133 24.2147 92.9522 24.0574 93.1943 23.8395C93.4606 23.5974 93.6421 23.2343 93.739 22.7502C93.86 22.266 93.9205 21.5882 93.9205 20.7168V5.10312Z" stroke="#204A42"/>
<path d="M122.554 16.2869C122.433 16.2869 122.361 16.3353 122.337 16.4321C122.337 16.5047 122.337 16.6015 122.337 16.7226C122.337 17.9814 122.47 19.0465 122.736 19.9179C123.026 20.7894 123.414 21.5035 123.898 22.0603C124.406 22.5928 124.999 22.9802 125.677 23.2222C126.379 23.4643 127.13 23.5853 127.928 23.5853C128.751 23.5853 129.55 23.5248 130.325 23.4038C131.1 23.2585 131.765 22.9559 132.322 22.496C132.443 22.3992 132.564 22.3629 132.685 22.3871C132.83 22.4113 132.939 22.4718 133.012 22.5686C133.109 22.6655 133.169 22.7744 133.194 22.8954C133.218 23.0165 133.194 23.1254 133.121 23.2222C132.346 24.2389 131.475 24.9409 130.507 25.3283C129.538 25.7156 128.34 25.9092 126.912 25.9092C125.459 25.9092 124.201 25.6914 123.135 25.2556C122.094 24.8199 121.223 24.2147 120.521 23.4401C119.843 22.6412 119.335 21.7214 118.996 20.6805C118.681 19.6153 118.524 18.4655 118.524 17.2309C118.524 16.0448 118.718 14.9191 119.105 13.854C119.516 12.7889 120.085 11.869 120.812 11.0944C121.538 10.3198 122.397 9.7025 123.39 9.24256C124.382 8.78262 125.484 8.55265 126.694 8.55265C127.711 8.55265 128.63 8.73421 129.453 9.09732C130.301 9.43622 131.015 9.92036 131.596 10.5497C132.177 11.1549 132.625 11.8932 132.939 12.7647C133.278 13.612 133.448 14.5318 133.448 15.5243C133.448 16.0327 133.266 16.2869 132.903 16.2869H122.554ZM129.199 15.016C129.538 15.016 129.732 14.8949 129.78 14.6529C129.829 14.4108 129.853 14.1203 129.853 13.7814C129.853 13.2731 129.768 12.7889 129.599 12.329C129.453 11.8448 129.236 11.4212 128.945 11.0581C128.655 10.695 128.304 10.4045 127.892 10.1866C127.481 9.96877 127.009 9.85984 126.476 9.85984C125.822 9.85984 125.254 9.98088 124.769 10.2229C124.309 10.4408 123.91 10.7434 123.571 11.1307C123.256 11.4938 123.014 11.9296 122.845 12.4379C122.675 12.9463 122.554 13.4788 122.482 14.0356C122.433 14.3261 122.409 14.5681 122.409 14.7618C122.433 14.9313 122.494 15.016 122.591 15.016H129.199Z" stroke="#204A42"/>
<path d="M140.939 19.9542C140.939 21.3099 141.084 22.3145 141.375 22.968C141.689 23.6216 142.246 23.9484 143.045 23.9484C143.602 23.9484 144.122 23.8637 144.606 23.6943C145.115 23.5248 145.502 23.3433 145.768 23.1496C145.841 23.1012 145.925 23.1012 146.022 23.1496C146.119 23.1738 146.204 23.2343 146.276 23.3312C146.349 23.4038 146.397 23.4885 146.422 23.5853C146.47 23.6822 146.47 23.7669 146.422 23.8395C145.962 24.5899 145.357 25.1225 144.606 25.4372C143.88 25.7519 143.021 25.9092 142.028 25.9092C140.382 25.9092 139.22 25.5461 138.542 24.8199C137.864 24.0695 137.526 22.9075 137.526 21.3341V12.0022C137.526 11.7117 137.513 11.4817 137.489 11.3123C137.465 11.1428 137.392 11.0218 137.271 10.9492C137.15 10.8765 136.945 10.8402 136.654 10.8402C136.388 10.816 136 10.8039 135.492 10.8039C135.42 10.8039 135.359 10.7313 135.311 10.5861C135.262 10.4408 135.226 10.2835 135.202 10.114C135.202 9.94457 135.226 9.78722 135.274 9.64198C135.323 9.49673 135.395 9.42411 135.492 9.42411C136.097 9.3757 136.618 9.29097 137.054 9.16994C137.489 9.02469 137.852 8.80683 138.143 8.51634C138.458 8.22585 138.7 7.83854 138.869 7.35439C139.063 6.84604 139.22 6.19245 139.341 5.39361C139.365 5.24837 139.462 5.13943 139.632 5.06681C139.801 4.99419 139.983 4.95788 140.176 4.95788C140.37 4.95788 140.539 4.99419 140.685 5.06681C140.854 5.11523 140.939 5.18785 140.939 5.28468V8.40741C140.939 8.79472 140.951 9.02469 140.975 9.09732C141.023 9.14573 141.181 9.16994 141.447 9.16994H145.223C145.393 9.16994 145.502 9.26676 145.55 9.46042C145.599 9.65408 145.623 9.82353 145.623 9.96877C145.623 10.114 145.587 10.2956 145.514 10.5134C145.466 10.7071 145.344 10.8039 145.151 10.8039H141.266C141.096 10.8039 140.999 10.8523 140.975 10.9492C140.951 11.0218 140.939 11.3244 140.939 11.8569V19.9542Z" stroke="#204A42"/>
</svg>
