<?xml version="1.0" standalone="no"?>
<!DOCTYPE svg PUBLIC "-//W3C//DTD SVG 20010904//EN"
 "http://www.w3.org/TR/2001/REC-SVG-20010904/DTD/svg10.dtd">
<svg version="1.0" xmlns="http://www.w3.org/2000/svg"
 width="1024.000000pt" height="1024.000000pt" viewBox="0 0 1024.000000 1024.000000"
 preserveAspectRatio="xMidYMid meet">
<metadata>
Created by potrace 1.11, written by Peter Selinger 2001-2013
</metadata>
<g transform="translate(0.000000,1024.000000) scale(0.100000,-0.100000)"
fill="#000000" stroke="none">
<path d="M5195 8923 c-76 -186 -173 -397 -185 -404 -8 -4 -24 -10 -34 -14 -34
-10 -4 -22 72 -28 76 -6 96 6 42 24 -35 13 -36 18 -11 84 l19 50 79 3 79 3 12
-46 c17 -66 15 -80 -15 -95 -29 -14 -17 -17 156 -33 13 -1 26 4 28 11 3 7 -4
12 -16 12 -24 0 -54 52 -75 132 -26 97 -113 332 -125 336 -6 2 -18 -14 -26
-35z m21 -168 c16 -46 25 -87 22 -91 -9 -9 -128 6 -128 16 0 13 68 160 74 160
3 0 17 -38 32 -85z"/>
<path d="M4430 8873 c-122 -20 -131 -22 -125 -33 3 -6 19 -10 34 -10 16 0 33
-6 39 -12 12 -15 52 -269 52 -331 0 -36 -4 -46 -25 -57 -24 -13 -34 -30 -17
-30 4 0 25 6 47 14 22 7 76 17 120 21 170 15 259 108 240 249 -12 91 -54 148
-135 185 -52 24 -106 25 -230 4z m209 -52 c48 -34 75 -100 75 -186 1 -111 -31
-150 -136 -170 -32 -6 -38 -4 -53 18 -16 26 -68 344 -58 361 3 4 35 6 72 4 50
-2 75 -9 100 -27z"/>
<path d="M5750 8869 c-64 -26 -114 -98 -130 -188 -31 -174 81 -284 272 -268
64 6 70 4 78 -16 6 -17 9 -18 13 -7 6 17 27 129 27 142 0 19 -19 6 -30 -22
-36 -87 -165 -104 -242 -32 -77 72 -47 283 51 349 42 28 89 29 141 3 45 -23
67 -51 76 -97 7 -36 22 -52 28 -31 3 7 7 36 10 64 6 51 6 51 -19 46 -17 -3
-34 2 -48 15 -12 10 -34 24 -48 30 -39 17 -150 24 -179 12z"/>
<path d="M4035 8779 c-22 -10 -50 -19 -62 -19 -13 0 -23 -4 -23 -10 0 -5 13
-10 29 -10 23 0 32 -7 44 -32 18 -40 88 -240 84 -244 -1 -1 -84 47 -185 108
l-184 110 -54 -17 c-30 -9 -54 -21 -54 -27 0 -6 10 -8 22 -5 43 12 56 -9 102
-156 64 -205 64 -206 30 -235 l-29 -24 25 5 c21 5 78 23 140 46 8 3 -2 7 -22
9 -20 2 -41 9 -48 16 -20 26 -99 276 -86 276 6 0 96 -52 199 -115 160 -98 217
-127 217 -112 0 1 -27 83 -60 182 -65 194 -73 244 -40 252 22 6 28 24 8 22 -7
0 -31 -9 -53 -20z"/>
<path d="M6283 8730 c15 -12 27 -31 27 -43 0 -12 -24 -96 -53 -187 l-53 -165
-37 1 c-43 1 -49 -13 -9 -21 15 -4 59 -17 97 -31 88 -30 98 -30 58 2 -18 14
-33 33 -33 42 0 9 25 89 55 177 l55 160 41 3 c23 2 39 8 37 14 -3 9 -127 52
-188 64 l-25 5 28 -21z"/>
<path d="M6975 8611 c-11 -5 -44 -12 -72 -16 -84 -11 -59 -35 37 -35 69 0 92
9 88 34 -3 23 -23 29 -53 17z"/>
<path d="M3395 8544 c-22 -14 -50 -29 -62 -34 -34 -14 -28 -29 10 -24 30 5 34
2 73 -58 131 -199 139 -282 34 -340 -48 -26 -104 -19 -141 19 -25 25 -149 242
-149 259 0 4 10 18 22 31 33 35 2 30 -65 -11 -31 -18 -70 -39 -87 -46 -40 -17
-38 -30 4 -23 39 6 46 -2 116 -132 74 -139 121 -185 185 -185 41 0 147 52 173
85 30 38 42 88 31 129 -5 19 -36 87 -69 152 -33 65 -60 129 -60 141 0 12 9 28
21 36 36 26 5 26 -36 1z"/>
<path d="M6684 8521 c-107 -49 -179 -223 -131 -317 43 -83 161 -143 256 -130
111 15 201 133 201 264 0 78 -66 163 -149 191 -50 16 -131 13 -177 -8z m208
-47 c27 -24 48 -75 48 -114 0 -39 -53 -157 -88 -194 -36 -38 -81 -56 -141 -56
-44 0 -52 4 -80 35 -35 41 -39 75 -17 149 21 69 72 141 124 176 39 26 54 31
90 27 24 -3 52 -13 64 -23z"/>
<path d="M7270 8267 c0 -7 5 -18 11 -24 6 -6 9 -22 6 -35 -6 -24 -186 -270
-206 -283 -6 -3 -20 -1 -32 5 -26 15 -41 2 -15 -14 10 -6 40 -28 66 -48 52
-40 71 -40 40 -1 -12 15 -16 31 -12 42 12 29 164 221 172 216 4 -3 11 -83 15
-180 8 -207 16 -277 31 -282 9 -3 188 215 225 274 19 32 62 48 88 33 17 -9 21
-8 21 4 0 9 -13 22 -29 30 -16 9 -43 27 -60 42 -36 30 -49 27 -31 -6 11 -20 7
-29 -26 -76 -69 -95 -139 -183 -145 -184 -4 0 -10 95 -14 210 l-7 211 -39 39
c-41 41 -59 50 -59 27z"/>
<path d="M2683 8097 c-67 -51 -122 -97 -122 -104 -1 -8 10 -10 34 -6 24 4 35
2 35 -6 0 -7 50 -73 111 -148 67 -83 109 -142 106 -152 -3 -9 -8 -24 -12 -33
-10 -25 17 -23 41 3 10 11 47 41 82 66 68 48 74 62 19 42 -19 -6 -41 -10 -48
-7 -8 3 -35 33 -62 66 l-47 60 31 26 c35 30 51 32 69 11 14 -16 30 -20 30 -7
0 12 -91 112 -102 112 -5 0 -6 -16 -2 -35 5 -29 2 -38 -22 -61 l-29 -26 -47
54 c-69 77 -70 85 -12 135 51 45 78 52 110 28 42 -31 46 -10 8 41 -15 19 -31
34 -38 33 -6 0 -66 -42 -133 -92z"/>
<path d="M4730 8094 c-624 -75 -1207 -340 -1680 -764 -43 -39 -39 -37 110 39
178 91 281 130 436 163 97 20 136 23 344 23 206 0 249 -3 349 -23 157 -32 186
-22 200 68 l6 35 71 3 71 3 7 -203 c3 -112 9 -233 13 -270 l6 -68 -104 0 -104
0 -27 34 c-60 76 -216 158 -366 193 -117 27 -376 25 -496 -5 -181 -45 -328
-126 -446 -244 -207 -209 -303 -491 -272 -799 15 -148 44 -255 101 -375 85
-178 191 -309 336 -417 210 -156 458 -233 783 -244 l162 -6 0 314 c0 415 -9
522 -50 596 -27 52 -30 65 -30 152 l0 96 127 -4 c71 -2 470 2 887 8 418 7 763
8 767 4 4 -4 -1 -82 -11 -173 -11 -91 -20 -168 -20 -172 0 -5 -44 -8 -98 -8
l-98 0 -13 36 c-9 24 -27 45 -57 64 -74 47 -166 55 -606 55 -212 0 -389 -2
-392 -5 -2 -3 -8 -222 -12 -486 l-7 -481 54 3 c247 15 249 16 302 42 59 30 92
79 103 150 l6 42 84 0 84 0 -2 -367 -3 -368 -82 -3 c-77 -3 -83 -1 -83 17 0
42 -42 130 -75 159 -42 38 -104 51 -263 59 l-123 6 4 -409 c2 -283 7 -420 16
-446 14 -45 54 -75 124 -94 81 -22 395 -35 685 -27 l262 6 0 351 c0 193 -5
407 -10 475 -9 114 -13 129 -45 188 -34 62 -36 69 -33 152 l3 86 156 -3 c87
-2 314 6 510 18 508 32 603 24 779 -62 208 -101 330 -310 330 -562 0 -152 -38
-269 -127 -395 -58 -81 -179 -208 -255 -268 -36 -27 -58 -52 -58 -64 0 -37 64
-185 168 -389 92 -180 141 -268 240 -424 l24 -39 24 29 c487 578 734 1243 734
1973 0 488 -97 902 -314 1346 -457 931 -1350 1558 -2391 1680 -163 19 -554 18
-715 -1z"/>
<path d="M2480 7683 c-44 -16 -55 -91 -18 -117 48 -34 108 -7 108 47 0 38 -7
50 -37 66 -23 12 -30 12 -53 4z"/>
<path d="M7690 7681 c-53 -15 -51 -103 3 -129 28 -13 62 -4 79 22 18 26 8 75
-18 95 -15 12 -29 21 -33 20 -3 -1 -17 -4 -31 -8z"/>
<path d="M1944 7300 c-80 -18 -165 -111 -189 -207 -10 -41 -16 -49 -40 -53
-34 -6 -26 -14 53 -55 29 -15 55 -31 58 -36 3 -5 10 -7 15 -3 6 3 -1 21 -16
40 -50 65 -46 131 10 193 28 30 45 40 80 46 130 19 288 -96 288 -210 0 -85
-82 -153 -170 -141 -24 3 -43 2 -43 -3 0 -9 100 -71 115 -71 4 0 5 9 2 20 -3
13 1 21 13 25 31 10 98 91 109 131 27 98 4 182 -69 248 -67 61 -152 91 -216
76z"/>
<path d="M8167 7260 l-40 -41 7 -114 c6 -106 5 -116 -14 -135 -15 -15 -27 -18
-52 -13 -48 9 -67 21 -88 56 -25 41 -25 68 1 101 32 41 19 48 -29 16 -24 -16
-48 -31 -55 -33 -8 -3 -5 -10 9 -20 11 -9 26 -34 32 -56 18 -59 92 -121 144
-121 32 0 47 7 75 35 l35 35 -7 106 c-8 120 1 156 45 174 36 15 62 7 100 -31
39 -39 41 -91 5 -143 -14 -21 -23 -41 -20 -46 3 -5 29 7 57 26 29 19 58 34 65
34 21 0 15 21 -7 27 -13 4 -20 14 -20 30 0 30 -15 60 -49 96 -35 39 -73 57
-117 57 -29 0 -44 -8 -77 -40z"/>
<path d="M8513 6883 c-52 -18 -58 -38 -8 -29 42 8 67 -13 97 -81 20 -45 20
-46 1 -72 -16 -21 -111 -78 -134 -80 -4 -1 -14 18 -23 40 -17 42 -17 42 10 70
32 33 17 38 -30 10 -17 -10 -48 -24 -68 -31 -45 -14 -52 -35 -9 -25 25 5 33 1
57 -31 27 -35 27 -37 9 -50 -22 -16 -119 -54 -139 -54 -12 0 -66 104 -66 126
0 4 12 20 27 36 14 15 24 30 21 33 -3 3 -28 -5 -55 -17 l-51 -23 87 -152 c80
-141 114 -190 91 -127 -6 14 -7 30 -4 36 9 15 286 147 323 154 23 5 32 2 43
-15 7 -12 18 -21 24 -21 6 0 -22 67 -62 150 -41 82 -74 154 -74 160 0 13 -16
12 -67 -7z"/>
<path d="M1596 6815 c-4 -14 -33 -86 -66 -161 -33 -74 -60 -138 -59 -142 1
-15 91 -82 101 -75 7 4 1 14 -15 27 -41 33 -34 106 17 164 26 29 58 28 129 -6
l58 -27 -23 -35 c-19 -27 -31 -35 -56 -36 -54 -1 -46 -10 32 -38 92 -32 106
-33 72 -1 -29 27 -32 42 -14 80 14 32 21 31 102 -5 52 -24 66 -35 67 -53 0
-14 7 -3 18 29 10 27 26 64 35 82 23 45 20 59 -9 28 -13 -14 -29 -26 -35 -26
-10 0 -290 122 -320 139 -10 6 -14 22 -13 45 3 41 -12 48 -21 11z"/>
<path d="M2499 6678 c-79 -123 -209 -386 -263 -533 -131 -356 -189 -687 -188
-1070 1 -492 95 -890 317 -1340 98 -200 213 -383 341 -544 103 -128 354 -378
484 -481 295 -234 663 -428 1012 -534 409 -124 838 -161 1266 -110 581 69
1134 307 1597 687 l29 25 -45 53 c-128 151 -208 304 -370 709 -70 174 -80 195
-101 195 -13 0 -84 -4 -158 -8 -76 -5 -171 -5 -217 0 l-83 9 0 -235 c1 -294
14 -543 31 -600 18 -61 67 -107 134 -126 l55 -16 0 -80 0 -80 -37 8 c-21 4
-199 7 -395 7 l-358 1 0 75 0 75 46 19 c57 23 93 75 111 159 9 41 15 186 20
433 l6 371 -234 7 c-129 3 -485 9 -791 13 l-558 6 0 93 c0 89 2 96 38 161 l37
68 3 417 4 416 -156 1 c-240 0 -581 45 -749 97 -393 124 -706 423 -827 793
-47 145 -63 271 -57 445 5 164 27 269 85 419 16 42 29 77 27 77 -2 0 -27 -37
-56 -82z"/>
<path d="M1920 6451 c-18 -44 -40 -59 -90 -63 l-45 -4 30 -13 c17 -7 42 -15
56 -18 25 -5 28 -1 48 58 22 65 23 92 1 40z"/>
<path d="M8717 6363 c-44 -5 -40 -23 5 -23 58 0 111 -87 94 -155 -6 -22 -23
-30 -149 -70 -171 -54 -210 -57 -231 -17 -23 41 -21 5 6 -105 23 -96 38 -119
38 -59 0 18 6 39 14 45 18 16 347 110 363 104 6 -2 17 -18 23 -34 7 -16 16
-26 21 -24 4 3 1 22 -7 42 -15 36 -32 87 -74 231 -23 78 -15 74 -103 65z"/>
<path d="M1386 6284 c-3 -9 -6 -25 -6 -37 -1 -12 -7 -40 -15 -62 -18 -49 -11
-58 18 -22 16 20 32 28 57 28 37 1 239 -47 253 -60 4 -4 -87 -54 -203 -110
-115 -56 -210 -108 -210 -115 0 -8 61 -29 163 -55 89 -23 181 -51 205 -61 36
-16 42 -23 42 -49 0 -38 18 -41 25 -3 3 15 12 49 21 75 18 56 14 69 -10 32 -9
-14 -25 -25 -36 -25 -30 0 -270 61 -270 69 0 3 87 50 193 103 l193 96 17 53
c10 28 15 54 12 57 -2 3 -17 -9 -33 -26 l-28 -30 -150 35 c-198 47 -214 54
-214 92 0 33 -14 41 -24 15z"/>
<path d="M8908 5813 c-3 -25 -26 -41 -205 -143 -112 -63 -203 -120 -203 -126
0 -6 91 -35 203 -63 231 -60 262 -72 277 -109 8 -23 9 -18 5 28 -3 30 -5 67
-5 83 0 15 -4 27 -10 27 -5 0 -10 -11 -10 -25 0 -34 -21 -40 -83 -24 l-52 14
-17 74 c-9 41 -15 78 -12 83 10 15 83 48 108 48 16 0 27 -7 31 -20 11 -34 28
-23 20 13 -4 17 -9 62 -12 100 -3 47 -9 67 -18 67 -8 0 -15 -12 -17 -27z
m-122 -268 c12 -76 16 -74 -94 -46 -73 19 -96 30 -77 38 6 2 37 19 70 38 85
49 90 47 101 -30z"/>
<path d="M1583 5584 c3 -3 20 -13 39 -22 30 -16 33 -21 36 -68 4 -76 2 -77
-180 -63 -176 14 -218 26 -218 63 0 27 -18 45 -24 24 -8 -23 -13 -208 -7 -208
4 0 12 14 18 31 l12 31 154 -7 c85 -4 170 -10 188 -14 31 -6 34 -10 37 -48 4
-57 -11 -80 -58 -93 -55 -15 -50 -30 10 -31 28 -1 56 -2 63 -3 14 -1 21 58 32
277 l8 137 -58 0 c-32 0 -56 -3 -52 -6z"/>
<path d="M8950 5173 c0 -3 7 -15 16 -25 24 -26 4 -44 -64 -59 -46 -9 -64 -19
-93 -50 l-36 -39 -15 40 c-20 50 -70 83 -113 74 -48 -10 -84 -41 -94 -82 -14
-56 -23 -272 -11 -272 5 0 12 11 16 25 3 14 14 30 24 35 25 13 295 13 344 -1
28 -8 41 -18 49 -40 16 -41 27 -36 27 14 0 23 3 74 6 112 5 48 3 67 -4 60 -5
-5 -12 -19 -14 -30 -6 -33 -46 -46 -118 -39 -70 7 -79 13 -72 49 7 37 34 55
114 75 106 28 138 80 83 135 -23 24 -45 33 -45 18z m-247 -149 c42 -22 47 -31
47 -81 l0 -43 -81 0 c-100 0 -119 9 -119 56 0 72 77 106 153 68z"/>
<path d="M1650 5027 c0 -56 -27 -64 -293 -82 l-98 -7 -12 31 c-6 17 -15 31
-18 31 -7 0 -1 -183 6 -207 9 -27 25 -11 25 22 0 42 13 49 106 60 59 6 61 6
66 -18 10 -52 -14 -73 -125 -112 -60 -21 -77 -38 -77 -78 0 -44 25 -77 57 -77
25 0 25 1 10 18 -27 30 -20 41 43 69 43 18 66 36 82 61 20 33 23 34 32 17 6
-11 23 -32 38 -47 22 -23 35 -28 74 -28 41 0 51 5 82 37 l35 37 -7 105 c-3 57
-6 124 -6 148 0 23 -4 43 -10 43 -5 0 -10 -10 -10 -23z m-2 -186 c5 -63 -15
-81 -89 -81 -68 0 -89 20 -89 82 0 34 2 37 33 41 17 2 57 4 87 3 l55 -1 3 -44z"/>
<path d="M6169 5044 c-25 -5 -27 -9 -33 -82 -3 -42 -9 -279 -12 -525 l-7 -449
259 4 c255 4 260 5 334 32 104 39 180 87 239 151 67 75 92 142 99 271 7 156
-33 268 -137 377 -79 85 -184 151 -300 188 -89 30 -107 32 -256 35 -88 1 -172
0 -186 -2z"/>
<path d="M8521 4592 c-20 -72 -71 -326 -71 -348 0 -19 8 -24 50 -33 61 -13 60
-13 60 -2 0 5 -11 12 -25 15 -38 10 -58 48 -50 95 11 66 15 66 201 26 93 -20
174 -41 181 -47 7 -6 13 -23 13 -39 0 -42 18 -36 25 9 3 20 12 66 19 102 8 36
12 67 9 70 -3 3 -8 -1 -10 -7 -3 -7 -12 -22 -21 -33 l-17 -20 -165 31 c-103
19 -169 36 -177 45 -15 20 2 83 29 107 11 9 33 17 49 17 37 0 38 18 2 25 -16
3 -43 10 -60 14 -32 9 -33 8 -42 -27z"/>
<path d="M1478 4421 c-127 -51 -174 -132 -148 -257 10 -49 20 -67 59 -105 49
-50 96 -69 168 -69 64 0 146 35 186 79 89 99 58 285 -58 345 -55 28 -146 32
-207 7z m229 -78 c50 -23 75 -67 70 -121 -7 -65 -60 -111 -160 -138 -108 -29
-196 -11 -237 46 -25 35 -25 53 1 107 44 92 230 152 326 106z"/>
<path d="M8341 3988 c-24 -49 -34 -84 -34 -120 -1 -45 3 -54 31 -79 26 -24 42
-29 81 -29 44 0 54 5 102 48 29 26 61 55 71 64 57 57 158 20 158 -58 0 -28 -8
-44 -34 -70 -30 -30 -40 -34 -85 -34 -28 0 -51 -4 -51 -10 0 -5 9 -10 20 -10
10 0 42 -9 70 -20 51 -20 51 -20 45 -1 -4 13 4 34 24 61 78 108 50 233 -56
247 -50 7 -104 -20 -178 -87 -31 -28 -64 -50 -74 -50 -85 0 -113 35 -86 107
14 35 23 44 53 53 20 5 47 10 60 10 13 0 20 4 17 10 -3 6 -15 10 -26 10 -11 0
-32 6 -47 14 l-27 13 -34 -69z"/>
<path d="M8173 3570 c-50 -96 -56 -122 -18 -80 10 11 26 20 36 20 18 0 305
-125 328 -143 9 -8 11 -24 8 -49 -3 -21 -2 -38 1 -38 12 1 99 190 88 190 -6 0
-17 -9 -24 -20 -7 -11 -19 -20 -27 -20 -22 0 -308 145 -324 164 -8 9 -10 26
-6 46 12 55 -9 31 -62 -70z"/>
<path d="M1989 3635 c0 -5 -1 -26 -2 -45 -2 -34 -6 -37 -152 -122 -151 -89
-182 -100 -205 -73 -26 32 -30 13 -5 -27 15 -24 40 -72 56 -108 53 -115 120
-164 225 -164 50 -1 69 4 109 29 74 46 106 98 113 183 5 76 7 70 -92 252 -25
47 -46 81 -47 75z m83 -185 c23 -46 23 -127 0 -162 -37 -56 -128 -107 -207
-115 -47 -5 -54 -3 -87 26 -50 44 -65 83 -44 115 18 28 283 178 306 174 8 -2
23 -19 32 -38z"/>
<path d="M8030 3282 c0 -11 -11 -24 -24 -30 -119 -54 -176 -217 -113 -324 34
-59 116 -115 189 -130 79 -17 127 -1 189 64 58 61 89 123 89 182 0 39 -5 48
-36 74 -28 23 -35 35 -29 51 11 37 -12 22 -44 -28 -17 -26 -40 -56 -51 -66
-11 -10 -17 -22 -14 -27 4 -5 19 3 35 18 l28 27 36 -24 c45 -30 52 -59 29
-110 -21 -48 -62 -85 -104 -94 -70 -15 -209 54 -263 131 -51 72 -33 160 44
212 30 21 42 23 97 18 34 -3 62 -4 62 -2 0 4 -108 76 -115 76 -3 0 -5 -8 -5
-18z"/>
<path d="M2317 3094 c-3 -4 -2 -15 3 -25 6 -9 7 -25 4 -34 -4 -8 -66 -63 -139
-120 -135 -106 -172 -124 -203 -93 -6 6 -15 9 -19 5 -3 -4 7 -22 24 -40 16
-17 67 -78 112 -134 45 -57 84 -103 87 -103 3 0 26 14 50 32 29 21 41 35 34
42 -6 6 -18 6 -34 -2 -36 -16 -79 4 -117 56 -22 31 -29 49 -25 66 6 23 94 106
113 106 17 0 53 -46 53 -66 0 -11 -5 -25 -12 -32 -6 -6 -9 -15 -5 -18 7 -7
117 84 117 98 0 5 -15 6 -34 2 -29 -5 -39 -2 -63 22 l-27 27 48 42 c26 24 59
49 73 56 24 13 27 12 57 -23 18 -20 38 -48 46 -62 12 -24 11 -29 -9 -56 -12
-17 -19 -35 -16 -40 6 -10 84 48 85 64 0 4 -37 51 -82 105 -108 128 -113 133
-121 125z"/>
<path d="M7546 2747 c-66 -51 -124 -100 -130 -109 -13 -21 0 -36 16 -20 7 7
26 12 43 12 25 0 51 -21 154 -119 l124 -118 -7 -44 -7 -44 132 131 132 132
-37 47 c-26 35 -37 44 -42 32 -3 -8 -1 -24 5 -36 22 -40 13 -78 -27 -121 -22
-22 -48 -40 -60 -40 -22 0 -130 87 -131 106 -1 6 11 21 25 35 24 23 26 23 54
7 50 -28 43 -2 -12 51 -33 31 -57 46 -62 40 -6 -6 -6 -13 2 -21 19 -19 14 -44
-12 -75 l-25 -28 -63 62 -62 63 38 39 c57 58 77 66 116 46 17 -9 35 -14 38
-11 7 8 -58 76 -72 75 -6 0 -65 -41 -130 -92z"/>
<path d="M2841 2531 l22 -30 -21 -35 c-12 -20 -63 -88 -113 -152 l-92 -116
-39 5 c-22 3 -38 2 -36 -2 2 -5 67 -56 145 -115 l142 -107 35 38 c47 50 48 72
2 38 -35 -27 -82 -19 -126 21 -53 48 -53 76 0 143 22 28 44 51 49 51 13 0 61
-48 61 -60 0 -6 -5 -21 -11 -32 -7 -13 -8 -23 -1 -30 7 -7 19 4 38 33 15 24
37 52 48 61 25 20 13 37 -14 20 -11 -7 -28 -12 -37 -12 -17 1 -63 32 -63 44 0
13 102 126 114 126 7 0 37 -19 66 -42 53 -42 54 -44 35 -105 -11 -34 6 -28 42
16 l32 38 -138 117 c-138 116 -181 142 -140 87z"/>
<path d="M7201 2414 c-19 -8 -57 -34 -85 -57 -28 -24 -63 -51 -78 -60 -34 -21
-40 -54 -8 -37 12 6 29 8 39 5 10 -3 67 -73 126 -156 103 -146 106 -151 95
-180 -18 -42 -8 -45 31 -11 19 16 60 46 93 66 60 38 69 58 17 36 -16 -6 -38
-9 -48 -6 -22 7 -93 99 -93 120 0 12 47 36 70 36 4 0 38 -22 75 -50 75 -55 99
-60 139 -29 25 20 33 50 20 83 -9 25 -24 19 -24 -9 0 -38 -34 -32 -86 14 -45
39 -96 57 -130 44 -16 -6 -16 -3 4 29 33 54 29 103 -12 144 -39 39 -85 45
-145 18z m41 -55 c29 -16 67 -60 74 -87 7 -27 -18 -69 -50 -84 -21 -9 -28 -5
-67 37 -68 74 -73 83 -57 102 10 13 60 41 76 43 2 0 13 -5 24 -11z"/>
<path d="M3230 2169 c-16 -16 -32 -39 -35 -50 -11 -35 4 -86 40 -133 71 -94
79 -128 39 -175 -68 -81 -196 17 -165 127 14 47 0 39 -39 -26 -46 -74 -45 -72
-17 -72 16 0 35 -11 50 -29 13 -16 44 -39 67 -51 98 -50 200 -1 200 98 0 46
-14 79 -67 156 -38 55 -42 93 -13 124 24 25 59 28 98 8 49 -25 60 -67 36 -130
-13 -34 17 -14 31 21 9 21 23 45 32 55 14 16 14 18 -9 27 -13 5 -30 16 -38 26
-24 29 -88 55 -136 55 -38 0 -51 -5 -74 -31z"/>
<path d="M6560 2011 c0 -5 -17 -11 -39 -15 -46 -7 -127 -60 -149 -98 -15 -25
-15 -32 -2 -70 23 -65 64 -88 161 -88 92 0 142 -19 160 -61 25 -61 -26 -119
-104 -119 -31 0 -46 7 -74 35 -20 20 -38 34 -40 32 -2 -3 5 -24 16 -48 10 -24
24 -55 29 -69 11 -24 11 -24 17 -4 6 18 15 22 52 22 50 1 99 27 138 73 37 45
35 107 -5 153 -37 42 -73 55 -181 66 -85 8 -109 22 -109 61 0 26 49 68 87 75
30 6 39 2 69 -27 18 -18 36 -31 38 -28 9 9 -39 119 -51 119 -7 0 -13 -4 -13
-9z"/>
<path d="M3630 1954 c-29 -66 -25 -73 15 -30 28 31 40 37 59 32 43 -11 74 -24
81 -36 7 -11 -107 -310 -129 -338 -5 -7 -24 -12 -42 -10 -18 1 -36 0 -39 -4
-6 -6 197 -88 204 -82 2 2 -8 15 -23 29 -15 14 -26 31 -23 38 2 7 31 80 62
162 32 83 63 156 69 163 10 10 20 10 47 1 55 -19 68 -36 71 -93 l3 -51 27 55
c22 43 25 58 15 67 -13 13 -344 143 -364 143 -8 0 -23 -21 -33 -46z"/>
<path d="M4150 1820 c0 -5 6 -10 13 -10 8 0 22 -9 32 -20 17 -19 17 -24 -9
-152 -31 -159 -32 -193 -6 -236 27 -44 71 -68 147 -82 56 -9 69 -8 107 8 73
33 89 67 97 204 8 136 21 168 69 168 50 0 34 15 -32 31 -35 9 -71 19 -80 23
-11 5 -18 4 -18 -2 0 -6 9 -14 20 -17 32 -10 34 -50 10 -164 -39 -188 -68
-228 -161 -219 -60 6 -105 43 -115 94 -6 34 36 257 56 294 8 14 21 20 46 20
63 0 32 23 -62 47 -103 25 -114 27 -114 13z"/>
<path d="M5970 1821 c-111 -23 -175 -102 -175 -216 0 -75 42 -165 98 -209 83
-66 252 -38 311 51 40 59 52 138 32 205 -20 68 -68 136 -109 153 -43 18 -114
25 -157 16z m118 -57 c59 -68 93 -233 61 -300 -17 -34 -73 -74 -104 -74 -13 0
-28 7 -35 15 -7 8 -19 15 -27 15 -27 0 -73 64 -93 129 -50 160 1 269 120 257
37 -3 51 -11 78 -42z"/>
<path d="M5485 1726 c-55 -11 -90 -22 -79 -24 40 -6 51 -34 73 -182 29 -198
28 -209 -9 -223 -38 -14 -39 -31 -2 -23 15 3 62 9 105 12 49 5 76 11 74 18 -2
6 -18 12 -35 14 -23 2 -33 9 -37 25 -9 39 -35 274 -35 315 0 38 22 72 48 72 7
0 12 5 12 10 0 6 -3 9 -7 9 -5 -1 -53 -11 -108 -23z"/>
<path d="M4780 1700 c0 -5 11 -12 25 -16 14 -3 30 -14 35 -24 6 -10 10 -89 10
-174 0 -143 -2 -158 -20 -176 -11 -11 -27 -20 -35 -20 -8 0 -15 -4 -15 -8 0
-15 245 -23 303 -11 100 22 167 121 154 231 -11 90 -62 156 -150 193 -42 17
-307 22 -307 5z m276 -50 c62 -27 87 -73 87 -169 1 -61 -4 -87 -22 -125 -29
-59 -60 -80 -121 -80 -82 0 -83 2 -78 204 2 96 7 180 11 187 9 15 67 7 123
-17z"/>
</g>
</svg>
