<?xml version="1.0" standalone="no"?>
<!DOCTYPE svg PUBLIC "-//W3C//DTD SVG 20010904//EN"
 "http://www.w3.org/TR/2001/REC-SVG-20010904/DTD/svg10.dtd">
<svg version="1.0" xmlns="http://www.w3.org/2000/svg"
 width="918.000000pt" height="918.000000pt" viewBox="0 0 918.000000 918.000000"
 preserveAspectRatio="xMidYMid meet">
<metadata>
Created by potrace 1.11, written by Peter Selinger 2001-2013
</metadata>
<g transform="translate(0.000000,918.000000) scale(0.100000,-0.100000)"
fill="#000000" stroke="none">
<path d="M0 4590 l0 -4590 4590 0 4590 0 0 4590 0 4590 -4590 0 -4590 0 0
-4590z m1950 1500 c152 -21 68 65 974 -1011 l816 -970 0 668 c-1 712 -6 843
-41 937 -28 74 -53 90 -172 106 -51 7 -105 19 -120 27 -74 38 -76 201 -2 249
23 15 42 16 178 8 189 -11 450 -11 669 1 l167 8 29 -30 c58 -58 62 -157 9
-219 -20 -23 -36 -28 -132 -40 -71 -9 -115 -20 -127 -31 -34 -30 -77 -138 -95
-234 -15 -85 -18 -209 -23 -1256 l-5 -1163 -25 -25 c-31 -31 -120 -50 -186
-40 -36 5 -57 16 -90 48 -23 23 -423 494 -889 1047 -465 553 -850 1007 -856
1008 -12 5 -12 -1395 0 -1531 17 -180 60 -225 239 -249 140 -18 184 -54 184
-148 -1 -65 -26 -109 -75 -133 -35 -18 -46 -18 -145 -7 -189 21 -511 24 -701
5 -160 -15 -173 -15 -206 1 -66 31 -94 126 -59 201 25 51 50 63 171 79 182 26
210 48 232 184 16 99 15 2020 -1 2074 -19 63 -83 121 -160 144 -34 11 -88 23
-118 27 -105 14 -135 47 -135 149 0 42 6 69 17 86 36 50 43 51 333 46 149 -3
304 -10 345 -16z m5243 -446 c84 -29 87 -36 87 -270 l0 -204 229 0 229 0 31
-25 c16 -14 35 -42 42 -62 15 -47 6 -152 -16 -190 -33 -56 -41 -58 -287 -61
l-228 -4 0 -556 c1 -581 6 -663 45 -746 24 -50 59 -66 143 -66 80 0 156 20
229 61 81 45 146 34 193 -31 51 -72 30 -140 -76 -244 -65 -63 -149 -108 -259
-137 -109 -29 -337 -31 -440 -5 -190 50 -294 151 -351 342 -16 53 -18 122 -21
720 l-4 662 -99 4 c-87 3 -102 6 -124 27 -54 51 -59 194 -8 249 23 25 37 30
97 35 114 11 170 32 224 85 56 55 81 112 110 258 21 108 40 135 107 159 52 19
91 18 147 -1z m-1487 -415 c199 -35 384 -137 499 -276 69 -83 147 -239 175
-351 31 -123 37 -260 15 -318 -34 -89 4 -84 -679 -84 l-598 0 7 -87 c9 -118
31 -225 62 -297 94 -225 246 -315 528 -316 216 0 327 25 432 97 44 30 64 38
99 37 76 -2 134 -62 134 -141 0 -33 -8 -51 -39 -90 -53 -66 -146 -152 -207
-191 -201 -127 -575 -166 -884 -91 -108 26 -286 113 -370 182 -155 127 -268
323 -314 550 -99 481 43 926 378 1181 181 139 370 203 602 205 55 1 127 -4
160 -10z"/>
<path d="M5408 4927 c-94 -36 -167 -97 -207 -176 -25 -48 -61 -184 -61 -228
l0 -33 353 2 352 3 0 75 c-1 139 -69 272 -169 335 -44 27 -59 30 -140 33 -58
1 -104 -3 -128 -11z"/>
</g>
</svg>
